<svg width="643" height="673" viewBox="0 0 643 673" fill="none" xmlns="http://www.w3.org/2000/svg">
<path d="M224.005 164.271C224.005 156.057 230.724 149.339 238.937 149.339H403.204C411.418 149.339 418.136 156.058 418.136 164.271C418.136 172.484 411.417 179.203 403.204 179.203H238.937C230.724 179.203 224.005 172.484 224.005 164.271ZM642.139 306.138V515.204C642.139 539.844 621.977 560.007 597.336 560.007L492.805 560.002V627.199C492.805 651.839 472.644 672.002 448.003 672.002H44.8027C20.1627 672.002 0 651.84 0 627.199V164.266C0 160.531 1.4948 156.797 4.4792 153.813L153.813 4.4792C156.802 1.4948 160.537 0 164.266 0H447.999C472.639 0 492.802 20.1613 492.802 44.8027V261.336H597.332C621.972 261.336 642.135 281.497 642.135 306.139L642.139 306.138ZM50.7787 149.337H134.404C142.618 149.337 149.336 142.619 149.336 134.405V50.7748L50.7787 149.337ZM462.939 560.004H119.472C94.832 560.004 74.6693 539.843 74.6693 515.202V306.135C74.6693 281.495 94.8307 261.332 119.472 261.332H462.939L462.933 44.7988C462.933 36.5852 456.215 29.8668 448.001 29.8668L179.201 29.8616V134.392C179.201 159.032 159.04 179.195 134.399 179.195H29.8681V627.195C29.8681 635.409 36.5869 642.127 44.8001 642.127H448C456.214 642.127 462.932 635.408 462.932 627.195L462.939 560.004ZM612.272 306.138C612.272 297.924 605.553 291.205 597.34 291.205L119.473 291.2C111.26 291.2 104.541 297.919 104.541 306.132V515.199C104.541 523.413 111.26 530.131 119.473 530.131H597.34C605.554 530.131 612.272 523.412 612.272 515.199V306.138ZM268.805 388.268C268.805 417.388 245.66 440.534 216.54 440.534H194.139V470.398C194.139 478.611 187.42 485.329 179.207 485.329C170.993 485.329 164.275 478.611 164.275 470.398L164.269 350.933C164.269 342.72 170.988 336.001 179.201 336.001H216.535C245.66 336.001 268.805 359.147 268.805 388.267L268.805 388.268ZM238.936 388.268C238.936 375.575 229.228 365.867 216.535 365.867H194.133V410.669H216.535C229.233 410.669 238.936 400.216 238.936 388.268ZM418.136 395.737V425.601C418.136 458.456 391.256 485.336 358.401 485.336H328.537C320.324 485.336 313.605 478.617 313.605 470.404L313.6 350.934C313.6 342.721 320.319 336.002 328.532 336.002H358.396C391.256 336.002 418.136 362.882 418.136 395.737ZM388.267 395.737C388.267 379.31 374.829 365.873 358.403 365.873H343.471V455.472H358.403C374.829 455.472 388.267 442.034 388.267 425.608V395.737ZM552.533 336.002H477.867C469.653 336.002 462.935 342.721 462.935 350.934V470.404C462.935 478.617 469.654 485.336 477.867 485.336C486.08 485.336 492.799 478.617 492.799 470.404V440.54H522.663C530.876 440.54 537.595 433.821 537.595 425.608C537.595 417.394 530.876 410.676 522.663 410.676H492.799V365.873H552.533C560.747 365.873 567.465 359.154 567.465 350.941C567.465 342.722 560.747 336.004 552.533 336.004V336.002Z" fill="#032A4A"/>
</svg>
