<svg width="613" height="448" viewBox="0 0 613 448" fill="none" xmlns="http://www.w3.org/2000/svg">
<path d="M29.864 0C13.3693 0 0 13.3693 0 29.864C0 46.3587 13.3693 59.728 29.864 59.728H582.397C598.892 59.728 612.261 46.3587 612.261 29.864C612.261 13.3693 598.892 0 582.397 0H29.864ZM29.864 194.133C13.3693 194.133 0 207.503 0 223.997C0 240.492 13.3693 253.861 29.864 253.861H582.397C598.892 253.861 612.261 240.492 612.261 223.997C612.261 207.503 598.892 194.133 582.397 194.133H29.864ZM29.864 388.267C13.3693 388.267 0 401.636 0 418.131C0 434.625 13.3693 447.995 29.864 447.995H582.397C598.892 447.995 612.261 434.625 612.261 418.131C612.261 401.636 598.892 388.267 582.397 388.267H29.864Z" fill="#032A4A"/>
</svg>
