<svg width="100" height="89" viewBox="0 0 100 89" fill="none" xmlns="http://www.w3.org/2000/svg">
<path d="M84.2105 22.757H83.7105V23.257V36.6669C83.4271 36.668 83.0359 36.6696 82.5713 36.6713C81.5888 36.6749 80.2782 36.6793 78.966 36.6822C77.6537 36.6851 76.3404 36.6866 75.3523 36.6844C74.8732 36.6833 74.4718 36.6814 74.1842 36.6784V23.257V22.757H73.6842H58.3974C58.3987 22.5127 58.4003 22.19 58.4021 21.8124C58.4062 20.9437 58.4112 19.7849 58.4145 18.6245C58.4178 17.4643 58.4194 16.3018 58.4169 15.426C58.4158 15.0387 58.4139 14.7061 58.411 14.4542H73.6842H74.1842V13.9542V0.5H83.7105V13.9542V14.4542H84.2105H99.5V22.757H84.2105ZM67.9211 41.8627V42.3627H68.4211H83.7105V79.0739C83.7105 83.8581 79.2574 87.8768 73.6842 87.8768H10.5263C4.95313 87.8768 0.5 83.8581 0.5 79.0739V23.257C0.5 18.4729 4.95313 14.4542 10.5263 14.4542H52.1316V27.9084V28.4084H52.6316H67.9211V41.8627ZM10.1451 78.7504L9.44622 79.5739H10.5263H73.6842H74.8112L74.0549 78.7384L53.0023 55.4813L52.6194 55.0584L52.2504 55.4934L36.8651 73.6227L26.715 60.1672L26.3388 59.6685L25.9346 60.1448L10.1451 78.7504Z" fill="white" fill-opacity="0.64" stroke="url(#paint0_linear_200_72)"/>
<defs>
<linearGradient id="paint0_linear_200_72" x1="50" y1="0" x2="50" y2="88.3768" gradientUnits="userSpaceOnUse">
<stop stop-color="#2569C1"/>
<stop offset="1" stop-color="#726AC5"/>
</linearGradient>
</defs>
</svg>
