<svg width="25" height="25" viewBox="0 0 25 25" fill="none" xmlns="http://www.w3.org/2000/svg">
<path d="M12.3749 7.49999C13.6249 7.49999 14.8749 7.99994 15.75 9.00008L17.4999 7.24994C16.1249 5.75003 14.2499 5.00003 12.3749 5.00003C10.3749 5.00003 8.62493 5.75008 7.12493 7.24994C4.25002 10.1249 4.25002 14.8749 7.12493 17.8749C8.49998 19.25 10.375 20 12.3749 20C14.3749 20 16.1249 19.25 17.6249 17.7501L15.875 16.0002C14 17.8752 10.875 17.8752 9.12498 16.0002C7.24998 14.0001 7.24998 10.8752 9.12498 8.87516C9.87484 8.00008 10.9998 7.50012 12.3748 7.50012L12.3749 7.49999Z" fill="#D0BEB6"/>
<path d="M12.5 0C5.625 0 0 5.625 0 12.5C0 19.375 5.625 25 12.5 25C19.375 25 25 19.375 25 12.5C25 5.625 19.375 0 12.5 0ZM12.5 22.5C7 22.5 2.5 18 2.5 12.5C2.5 7 7 2.5 12.5 2.5C18 2.5 22.5 7 22.5 12.5C22.5 18 18 22.5 12.5 22.5Z" fill="#D0BEB6"/>
</svg>
