<svg width="26" height="15" viewBox="0 0 26 15" fill="none" xmlns="http://www.w3.org/2000/svg">
<path d="M0.523456 3.11419C-0.174485 2.40178 -0.174485 1.24672 0.523456 0.53431C1.2214 -0.178104 2.35298 -0.178103 3.05092 0.534311L14.1718 11.8858C14.8697 12.5982 14.8697 13.7532 14.1718 14.4657C13.4738 15.1781 12.3423 15.1781 11.6443 14.4657L0.523456 3.11419Z" fill="#109B6D"/>
<path d="M22.9491 0.534341C23.647 -0.178073 24.7786 -0.178073 25.4765 0.534341C26.1745 1.24676 26.1745 2.40181 25.4765 3.11422L14.3557 14.4657C13.6577 15.1781 12.5262 15.1781 11.8282 14.4657C11.1303 13.7533 11.1303 12.5982 11.8282 11.8858L22.9491 0.534341Z" fill="#109B6D"/>
</svg>
