<svg width="36" height="25" viewBox="0 0 36 25" fill="none" xmlns="http://www.w3.org/2000/svg">
<path d="M35.119 2.15792C35.1193 1.644 34.9359 1.14735 34.6024 0.757495L34.5981 0.751208C34.5956 0.748475 34.5929 0.746835 34.591 0.744648C34.1833 0.271743 33.5912 0 32.9682 0H2.15085C1.52727 0 0.934451 0.272261 0.526684 0.746257L0.52124 0.751451L0.517702 0.756098C0.183726 1.1459 3.06027e-07 1.64343 3.06027e-07 2.15785V22.8402C-0.000271864 23.3511 0.181008 23.8453 0.510894 24.2343L0.513344 24.2373L0.516338 24.2403C0.923805 24.7217 1.52154 24.9997 2.15082 25H32.9682C33.5978 24.9997 34.1952 24.722 34.6027 24.2401L34.6057 24.2374L34.6081 24.2344C34.938 23.8454 35.1193 23.3511 35.119 22.8402L35.119 2.15792ZM1.63503 2.84705L12.4131 12.4902L1.63503 22.134V2.84705ZM17.5597 14.8961L2.74433 1.63991H32.3757L17.5597 14.8961ZM13.6424 13.5905L17.0156 16.6081C17.3259 16.8847 17.7932 16.8845 18.1035 16.6078L21.4772 13.5903L32.394 23.3579H2.72495L13.6424 13.5905ZM22.7063 12.4908L33.4844 2.84768V22.1346L22.7063 12.4908Z" fill="black"/>
</svg>
