<svg width="26" height="26" viewBox="0 0 26 26" fill="none" xmlns="http://www.w3.org/2000/svg">
<path d="M15.2783 12.5L24.4411 3.33727C25.2045 2.5738 25.2045 1.33626 24.4411 0.5726C23.6776 -0.190867 22.4401 -0.190867 21.6764 0.5726L12.5137 9.73534L3.35094 0.5726C2.58747 -0.190867 1.34993 -0.190867 0.586272 0.5726C-0.177195 1.33607 -0.177195 2.57361 0.586272 3.33727L9.74901 12.5L0.586272 21.6627C-0.177195 22.4262 -0.177195 23.6637 0.586272 24.4274C0.954879 24.796 1.45515 25.0067 1.95546 25.0067C2.45577 25.0067 2.95604 24.8223 3.32465 24.4274L12.5137 15.2647L21.6765 24.4274C22.0451 24.796 22.5453 25.0067 23.0456 25.0067C23.546 25.0067 24.0462 24.8223 24.4148 24.4274C25.1783 23.6639 25.1783 22.4264 24.4148 21.6627L15.2783 12.5Z" fill="black"/>
</svg>
