<svg width="488" height="441" viewBox="0 0 488 441" fill="none" xmlns="http://www.w3.org/2000/svg">
<g style="mix-blend-mode:soft-light" opacity="0.75">
<path d="M243 8.00001C243 3.58173 239.418 3.17097e-07 235 7.08255e-07L8 2.0805e-05C3.58172 2.11961e-05 7.94649e-06 3.58174 8.33765e-06 8.00002L2.63982e-05 212C2.67893e-05 216.418 3.58175 220 8.00003 220L235 220C239.418 220 243 216.418 243 212L243 8.00001Z" fill="#202020"/>
<path d="M243.004 228.614C243.004 224.196 239.422 220.614 235.004 220.614L8.00391 220.614C3.58563 220.614 0.0039142 224.196 0.00391459 228.614L0.00393265 432.614C0.00393304 437.032 3.58566 440.614 8.00393 440.614L235.004 440.614C239.422 440.614 243.004 437.032 243.004 432.614L243.004 228.614Z" fill="white"/>
<path d="M487.004 229C487.004 224.582 483.422 221 479.004 221L252.004 221C247.586 221 244.004 224.582 244.004 229L244.004 433C244.004 437.418 247.586 441 252.004 441L479.004 441C483.422 441 487.004 437.418 487.004 433L487.004 229Z" fill="white"/>
<path d="M487.004 8.00001C487.004 3.58173 483.422 3.17097e-07 479.004 7.08255e-07L252.004 2.0805e-05C247.586 2.11961e-05 244.004 3.58174 244.004 8.00002L244.004 212C244.004 216.418 247.586 220 252.004 220L479.004 220C483.422 220 487.004 216.418 487.004 212L487.004 8.00001Z" fill="white"/>
<path d="M113.815 169.046C107.161 169.046 100.935 167.651 95.1395 164.86C89.3435 162.07 84.6208 158.045 80.9715 152.785L90.3095 141.837C93.4221 146.131 96.9105 149.458 100.774 151.819C104.746 154.073 109.093 155.2 113.815 155.2C126.695 155.2 133.135 147.58 133.135 132.338V69.0652H92.4025V55.0582H149.074V131.533C149.074 144.091 146.069 153.483 140.058 159.708C134.155 165.934 125.407 169.046 113.815 169.046Z" fill="white"/>
<path d="M95.1395 164.86L96.8747 161.256L96.8747 161.256L95.1395 164.86ZM80.9715 152.785L77.9281 150.189L75.9285 152.534L77.6851 155.066L80.9715 152.785ZM90.3095 141.837L93.5479 139.489L90.5645 135.374L87.2661 139.241L90.3095 141.837ZM100.774 151.819L98.6887 155.232L98.7438 155.266L98.8 155.298L100.774 151.819ZM133.135 69.0652H137.135V65.0652H133.135V69.0652ZM92.4025 69.0652H88.4025V73.0652H92.4025V69.0652ZM92.4025 55.0582V51.0582H88.4025V55.0582H92.4025ZM149.074 55.0582H153.074V51.0582H149.074V55.0582ZM140.058 159.708L137.181 156.93L137.168 156.943L137.156 156.956L140.058 159.708ZM113.815 165.046C107.74 165.046 102.11 163.777 96.8747 161.256L93.4042 168.464C99.7605 171.525 106.581 173.046 113.815 173.046V165.046ZM96.8747 161.256C91.6982 158.764 87.5111 155.193 84.2578 150.505L77.6851 155.066C81.7305 160.896 86.9887 165.375 93.4042 168.464L96.8747 161.256ZM84.0148 155.381L93.3528 144.433L87.2661 139.241L77.9281 150.189L84.0148 155.381ZM87.071 144.185C90.4415 148.834 94.3036 152.553 98.6887 155.232L102.86 148.406C99.5173 146.363 96.4028 143.427 93.5479 139.489L87.071 144.185ZM98.8 155.298C103.394 157.906 108.425 159.2 113.815 159.2V151.2C109.76 151.2 106.097 150.241 102.749 148.34L98.8 155.298ZM113.815 159.2C121.065 159.2 127.171 157.024 131.361 152.067C135.441 147.238 137.135 140.426 137.135 132.338H129.135C129.135 139.491 127.61 144.11 125.25 146.903C122.999 149.566 119.446 151.2 113.815 151.2V159.2ZM137.135 132.338V69.0652H129.135V132.338H137.135ZM133.135 65.0652H92.4025V73.0652H133.135V65.0652ZM96.4025 69.0652V55.0582H88.4025V69.0652H96.4025ZM92.4025 59.0582H149.074V51.0582H92.4025V59.0582ZM145.074 55.0582V131.533H153.074V55.0582H145.074ZM145.074 131.533C145.074 143.52 142.202 151.729 137.181 156.93L142.936 162.487C149.936 155.237 153.074 144.662 153.074 131.533H145.074ZM137.156 156.956C132.245 162.135 124.709 165.046 113.815 165.046V173.046C126.105 173.046 136.065 169.732 142.961 162.461L137.156 156.956Z" fill="#202020"/>
<path d="M364.74 169.046C356.153 169.046 348.157 167.597 340.751 164.699C333.452 161.801 327.12 157.776 321.753 152.624C316.386 147.365 312.2 141.247 309.195 134.27C306.19 127.294 304.687 119.673 304.687 111.408C304.687 103.144 306.19 95.5228 309.195 88.5462C312.2 81.5695 316.386 75.5052 321.753 70.3532C327.12 65.0938 333.452 61.0152 340.751 58.1172C348.05 55.2192 356.046 53.7702 364.74 53.7702C373.327 53.7702 381.216 55.2192 388.407 58.1172C395.706 60.9078 402.038 64.9328 407.405 70.1922C412.879 75.3442 417.065 81.4085 419.963 88.3852C422.968 95.3618 424.471 103.036 424.471 111.408C424.471 119.78 422.968 127.455 419.963 134.431C417.065 141.408 412.879 147.526 407.405 152.785C402.038 157.937 395.706 161.962 388.407 164.86C381.216 167.651 373.327 169.046 364.74 169.046ZM364.74 154.717C370.965 154.717 376.708 153.644 381.967 151.497C387.334 149.351 391.949 146.345 395.813 142.481C399.784 138.51 402.843 133.895 404.99 128.635C407.244 123.376 408.371 117.634 408.371 111.408C408.371 105.183 407.244 99.4405 404.99 94.1812C402.843 88.9218 399.784 84.3602 395.813 80.4962C391.949 76.5248 387.334 73.4658 381.967 71.3192C376.708 69.1725 370.965 68.0992 364.74 68.0992C358.407 68.0992 352.558 69.1725 347.191 71.3192C341.932 73.4658 337.316 76.5248 333.345 80.4962C329.374 84.3602 326.261 88.9218 324.007 94.1812C321.86 99.4405 320.787 105.183 320.787 111.408C320.787 117.634 321.86 123.376 324.007 128.635C326.261 133.895 329.374 138.51 333.345 142.481C337.316 146.345 341.932 149.351 347.191 151.497C352.558 153.644 358.407 154.717 364.74 154.717Z" fill="#202020"/>
<path d="M364.317 389.66C355.731 389.66 347.52 388.372 339.684 385.796C331.849 383.113 325.677 379.678 321.169 375.492L327.126 362.934C331.42 366.691 336.894 369.804 343.548 372.272C350.203 374.741 357.126 375.975 364.317 375.975C370.865 375.975 376.178 375.224 380.256 373.721C384.335 372.219 387.34 370.179 389.272 367.603C391.204 364.92 392.17 361.915 392.17 358.587C392.17 354.723 390.882 351.611 388.306 349.249C385.838 346.888 382.564 345.01 378.485 343.614C374.514 342.112 370.113 340.824 365.283 339.75C360.453 338.677 355.57 337.443 350.632 336.047C345.802 334.545 341.348 332.666 337.269 330.412C333.298 328.158 330.078 325.153 327.609 321.396C325.141 317.532 323.906 312.595 323.906 306.584C323.906 300.788 325.409 295.475 328.414 290.645C331.527 285.708 336.25 281.79 342.582 278.892C349.022 275.887 357.18 274.384 367.054 274.384C373.602 274.384 380.095 275.243 386.535 276.96C392.975 278.678 398.557 281.146 403.279 284.366L397.966 297.246C393.136 294.026 388.038 291.719 382.671 290.323C377.305 288.821 372.099 288.069 367.054 288.069C360.722 288.069 355.516 288.874 351.437 290.484C347.359 292.094 344.353 294.241 342.421 296.924C340.597 299.608 339.684 302.613 339.684 305.94C339.684 309.912 340.919 313.078 343.387 315.439C345.963 317.801 349.237 319.679 353.208 321.074C357.287 322.47 361.741 323.758 366.571 324.938C371.401 326.012 376.231 327.246 381.061 328.641C385.999 330.037 390.453 331.861 394.424 334.115C398.503 336.369 401.777 339.375 404.245 343.131C406.714 346.888 407.948 351.718 407.948 357.621C407.948 363.31 406.392 368.623 403.279 373.56C400.167 378.39 395.337 382.308 388.789 385.313C382.349 388.211 374.192 389.66 364.317 389.66Z" fill="#202020"/>
<path d="M79.6722 388.372V275.672H130.226C143.213 275.672 153.195 278.302 160.172 283.561C167.149 288.713 170.637 295.797 170.637 304.813C170.637 310.931 169.242 316.083 166.451 320.269C163.768 324.455 160.118 327.675 155.503 329.929C150.888 332.183 145.897 333.31 140.53 333.31L143.428 328.48C149.868 328.48 155.557 329.607 160.494 331.861C165.431 334.115 169.349 337.443 172.247 341.843C175.145 346.137 176.594 351.503 176.594 357.943C176.594 367.603 172.945 375.117 165.646 380.483C158.455 385.743 147.721 388.372 133.446 388.372H79.6722ZM95.7722 375.331H132.802C141.711 375.331 148.526 373.829 153.249 370.823C157.972 367.818 160.333 363.095 160.333 356.655C160.333 350.108 157.972 345.332 153.249 342.326C148.526 339.321 141.711 337.818 132.802 337.818H94.3232V324.777H128.777C136.934 324.777 143.267 323.275 147.775 320.269C152.283 317.264 154.537 312.756 154.537 306.745C154.537 300.735 152.283 296.227 147.775 293.221C143.267 290.216 136.934 288.713 128.777 288.713H95.7722V375.331Z" fill="#202020"/>
</g>
</svg>
