<svg width="48" height="35" viewBox="0 0 48 35" fill="none" xmlns="http://www.w3.org/2000/svg">
<path d="M46.0145 7.18626H15.4946C14.8413 7.18626 14.2812 6.62625 14.2812 5.9729C14.2812 5.31956 14.8413 4.75955 15.4946 4.75955H46.0145C46.6679 4.75955 47.2279 5.31956 47.2279 5.9729C47.2279 6.62625 46.6679 7.18626 46.0145 7.18626Z" fill="#111827"/>
<path d="M5.97342 7.18626H1.21335C0.560009 7.18626 0 6.62625 0 5.9729C0 5.31956 0.560009 4.75955 1.21335 4.75955H5.97342C6.62677 4.75955 7.18678 5.31956 7.18678 5.9729C7.18678 6.62625 6.7201 7.18626 5.97342 7.18626Z" fill="#111827"/>
<path d="M46.0146 18.6669H37.9878C37.3344 18.6669 36.7744 18.1069 36.7744 17.4536C36.7744 16.8002 37.3344 16.2402 37.9878 16.2402H46.0146C46.6679 16.2402 47.2279 16.8002 47.2279 17.4536C47.2279 18.1069 46.6679 18.6669 46.0146 18.6669Z" fill="#111827"/>
<path d="M28.4676 18.6669H1.21384C0.560497 18.6669 0.000488281 18.1069 0.000488281 17.4536C0.000488281 16.8002 0.560497 16.2402 1.21384 16.2402H28.4676C29.1209 16.2402 29.6809 16.8002 29.6809 17.4536C29.6809 18.1069 29.1209 18.6669 28.4676 18.6669Z" fill="#111827"/>
<path d="M46.0145 30.2405H15.4946C14.8413 30.2405 14.2812 29.6804 14.2812 29.0271C14.2812 28.3738 14.8413 27.8138 15.4946 27.8138H46.0145C46.6679 27.8138 47.2279 28.3738 47.2279 29.0271C47.2279 29.6804 46.6679 30.2405 46.0145 30.2405Z" fill="#111827"/>
<path d="M5.97342 30.2405H1.21335C0.560009 30.2405 0 29.6805 0 29.0271C0 28.2804 0.560009 27.7204 1.21335 27.7204H5.97342C6.62677 27.7204 7.18678 28.2804 7.18678 28.9338C7.28011 29.6805 6.7201 30.2405 5.97342 30.2405Z" fill="#111827"/>
<path d="M10.7342 11.9468C7.46745 11.9468 4.76074 9.24014 4.76074 5.97342C4.76074 2.70671 7.46745 0 10.7342 0C14.0009 0 16.7076 2.70671 16.7076 5.97342C16.7076 9.24014 14.0942 11.9468 10.7342 11.9468ZM10.7342 2.4267C8.77414 2.4267 7.18745 4.01339 7.18745 5.97342C7.18745 7.93345 8.77414 9.52014 10.7342 9.52014C12.6942 9.52014 14.2809 7.93345 14.2809 5.97342C14.2809 4.01339 12.6942 2.4267 10.7342 2.4267Z" fill="#111827"/>
<path d="M33.2273 23.4265C29.9606 23.4265 27.2539 20.7198 27.2539 17.4531C27.2539 14.1864 29.9606 11.4796 33.2273 11.4796C36.494 11.4796 39.2008 14.1864 39.2008 17.4531C39.2008 20.7198 36.5874 23.4265 33.2273 23.4265ZM33.2273 13.9063C31.2673 13.9063 29.6806 15.493 29.6806 17.4531C29.6806 19.4131 31.2673 20.9998 33.2273 20.9998C35.1874 20.9998 36.7741 19.4131 36.7741 17.4531C36.7741 15.493 35.1874 13.9063 33.2273 13.9063Z" fill="#111827"/>
<path d="M10.7342 35C7.46745 35 4.76074 32.2933 4.76074 29.0266C4.76074 25.6665 7.46745 23.0532 10.7342 23.0532C14.0009 23.0532 16.7076 25.7599 16.7076 29.0266C16.8009 32.2933 14.0942 35 10.7342 35ZM10.7342 25.4799C8.77414 25.4799 7.18745 27.0666 7.18745 29.0266C7.18745 30.9866 8.77414 32.5733 10.7342 32.5733C12.6942 32.5733 14.2809 30.9866 14.2809 29.0266C14.2809 27.0666 12.6942 25.4799 10.7342 25.4799Z" fill="#111827"/>
</svg>
