<svg width="24" height="24" viewBox="0 0 24 24" fill="none" xmlns="http://www.w3.org/2000/svg">
<path d="M12 0C11.1279 0 10.4211 0.706861 10.4211 1.57895V10.4211H1.57895C0.706861 10.4211 0 11.1279 0 12C0 12.8721 0.706861 13.5789 1.57895 13.5789H10.4211V22.4211C10.4211 23.2931 11.1279 24 12 24C12.8721 24 13.5789 23.2931 13.5789 22.4211V13.5789H22.4211C23.2931 13.5789 24 12.8721 24 12C24 11.1279 23.2931 10.4211 22.4211 10.4211H13.5789V1.57895C13.5789 0.706861 12.8721 0 12 0Z" fill="white"/>
</svg>
