<svg width="53" height="74" viewBox="0 0 53 74" fill="none" xmlns="http://www.w3.org/2000/svg">
<rect y="21" width="26" height="26" rx="1" fill="#0B0707"/>
<path d="M6.13778 18V4.90909H11.3793C12.3423 4.90909 13.1456 5.05185 13.7891 5.33736C14.4325 5.62287 14.9162 6.01918 15.2401 6.52628C15.5639 7.02912 15.7259 7.60866 15.7259 8.26491C15.7259 8.77628 15.6236 9.22585 15.419 9.61364C15.2145 9.99716 14.9332 10.3125 14.5753 10.5597C14.2216 10.8026 13.8168 10.9751 13.3608 11.0774V11.2053C13.8594 11.2266 14.326 11.3672 14.7607 11.6271C15.1996 11.8871 15.5554 12.2514 15.8281 12.7202C16.1009 13.1847 16.2372 13.7386 16.2372 14.3821C16.2372 15.0767 16.0646 15.6967 15.7195 16.2422C15.3786 16.7834 14.8736 17.2116 14.2045 17.527C13.5355 17.8423 12.7109 18 11.7308 18H6.13778ZM8.90554 15.7372H11.1619C11.9332 15.7372 12.4957 15.5902 12.8494 15.2962C13.2031 14.9979 13.38 14.6016 13.38 14.1072C13.38 13.745 13.2926 13.4254 13.1179 13.1484C12.9432 12.8714 12.6939 12.6541 12.37 12.4964C12.0504 12.3388 11.669 12.2599 11.2259 12.2599H8.90554V15.7372ZM8.90554 10.3871H10.9574C11.3366 10.3871 11.6733 10.321 11.9673 10.1889C12.2656 10.0526 12.5 9.8608 12.6705 9.61364C12.8452 9.36648 12.9325 9.07031 12.9325 8.72514C12.9325 8.25213 12.7642 7.87074 12.4276 7.58097C12.0952 7.29119 11.6222 7.14631 11.0085 7.14631H8.90554V10.3871ZM20.8059 4.90909V18H18.0382V4.90909H20.8059ZM34.6335 9.49219H31.8338C31.7827 9.12997 31.6783 8.80824 31.5206 8.52699C31.3629 8.24148 31.1605 7.99858 30.9134 7.7983C30.6662 7.59801 30.3807 7.4446 30.0568 7.33807C29.7372 7.23153 29.3899 7.17827 29.0149 7.17827C28.3374 7.17827 27.7472 7.34659 27.2443 7.68324C26.7415 8.01562 26.3516 8.50142 26.0746 9.14062C25.7976 9.77557 25.6591 10.5469 25.6591 11.4545C25.6591 12.3878 25.7976 13.1719 26.0746 13.8068C26.3558 14.4418 26.7479 14.9212 27.2507 15.245C27.7536 15.5689 28.3352 15.7308 28.9957 15.7308C29.3665 15.7308 29.7095 15.6818 30.0249 15.5838C30.3445 15.4858 30.6278 15.343 30.875 15.1555C31.1222 14.9638 31.3267 14.7315 31.4886 14.4588C31.6548 14.1861 31.7699 13.875 31.8338 13.5256L34.6335 13.5384C34.5611 14.1392 34.38 14.7188 34.0902 15.277C33.8047 15.831 33.419 16.3274 32.9332 16.7663C32.4517 17.201 31.8764 17.5462 31.2074 17.8018C30.5426 18.0533 29.7905 18.179 28.951 18.179C27.7834 18.179 26.7393 17.9148 25.8189 17.3864C24.9027 16.858 24.1783 16.093 23.6456 15.0916C23.1172 14.0902 22.853 12.8778 22.853 11.4545C22.853 10.027 23.1214 8.8125 23.6584 7.81108C24.1953 6.80966 24.924 6.04687 25.8445 5.52273C26.7649 4.99432 27.8004 4.73011 28.951 4.73011C29.7095 4.73011 30.4126 4.83665 31.0604 5.04972C31.7124 5.26278 32.2898 5.57386 32.7926 5.98295C33.2955 6.38778 33.7045 6.88423 34.0199 7.4723C34.3395 8.06037 34.544 8.73366 34.6335 9.49219ZM48.6481 11.4545C48.6481 12.8821 48.3775 14.0966 47.8363 15.098C47.2994 16.0994 46.5664 16.8643 45.6374 17.3928C44.7127 17.9169 43.6729 18.179 42.5181 18.179C41.3548 18.179 40.3107 17.9148 39.386 17.3864C38.4613 16.858 37.7305 16.093 37.1935 15.0916C36.6566 14.0902 36.3881 12.8778 36.3881 11.4545C36.3881 10.027 36.6566 8.8125 37.1935 7.81108C37.7305 6.80966 38.4613 6.04687 39.386 5.52273C40.3107 4.99432 41.3548 4.73011 42.5181 4.73011C43.6729 4.73011 44.7127 4.99432 45.6374 5.52273C46.5664 6.04687 47.2994 6.80966 47.8363 7.81108C48.3775 8.8125 48.6481 10.027 48.6481 11.4545ZM45.842 11.4545C45.842 10.5298 45.7035 9.75 45.4265 9.11506C45.1538 8.48011 44.7681 7.99858 44.2695 7.67045C43.771 7.34233 43.1871 7.17827 42.5181 7.17827C41.8491 7.17827 41.2653 7.34233 40.7667 7.67045C40.2681 7.99858 39.8803 8.48011 39.6033 9.11506C39.3306 9.75 39.1942 10.5298 39.1942 11.4545C39.1942 12.3793 39.3306 13.1591 39.6033 13.794C39.8803 14.429 40.2681 14.9105 40.7667 15.2386C41.2653 15.5668 41.8491 15.7308 42.5181 15.7308C43.1871 15.7308 43.771 15.5668 44.2695 15.2386C44.7681 14.9105 45.1538 14.429 45.4265 13.794C45.7035 13.1591 45.842 12.3793 45.842 11.4545Z" fill="white"/>
<path d="M13.3793 27.9091H16.1151V37.0369C16.1151 37.8807 15.9254 38.6136 15.5462 39.2358C15.1712 39.858 14.6491 40.3374 13.9801 40.674C13.3111 41.0107 12.5334 41.179 11.647 41.179C10.8587 41.179 10.1428 41.0405 9.49929 40.7635C8.86009 40.4822 8.35298 40.0561 7.97798 39.4851C7.60298 38.9098 7.41761 38.1875 7.42188 37.3182H10.1768C10.1854 37.6634 10.2557 37.9595 10.3878 38.2067C10.5241 38.4496 10.7095 38.6371 10.9439 38.7692C11.1825 38.897 11.4638 38.9609 11.7876 38.9609C12.1286 38.9609 12.4162 38.8885 12.6506 38.7436C12.8892 38.5945 13.0703 38.3771 13.1939 38.0916C13.3175 37.8061 13.3793 37.4545 13.3793 37.0369V27.9091Z" fill="white"/>
<rect x="27" y="21" width="26" height="26" rx="1" fill="white"/>
<path d="M46.1676 34.4545C46.1676 35.8821 45.897 37.0966 45.3558 38.098C44.8189 39.0994 44.0859 39.8643 43.157 40.3928C42.2322 40.9169 41.1925 41.179 40.0376 41.179C38.8743 41.179 37.8303 40.9148 36.9055 40.3864C35.9808 39.858 35.25 39.093 34.7131 38.0916C34.1761 37.0902 33.9077 35.8778 33.9077 34.4545C33.9077 33.027 34.1761 31.8125 34.7131 30.8111C35.25 29.8097 35.9808 29.0469 36.9055 28.5227C37.8303 27.9943 38.8743 27.7301 40.0376 27.7301C41.1925 27.7301 42.2322 27.9943 43.157 28.5227C44.0859 29.0469 44.8189 29.8097 45.3558 30.8111C45.897 31.8125 46.1676 33.027 46.1676 34.4545ZM43.3615 34.4545C43.3615 33.5298 43.223 32.75 42.946 32.1151C42.6733 31.4801 42.2876 30.9986 41.7891 30.6705C41.2905 30.3423 40.7067 30.1783 40.0376 30.1783C39.3686 30.1783 38.7848 30.3423 38.2862 30.6705C37.7876 30.9986 37.3999 31.4801 37.1229 32.1151C36.8501 32.75 36.7138 33.5298 36.7138 34.4545C36.7138 35.3793 36.8501 36.1591 37.1229 36.794C37.3999 37.429 37.7876 37.9105 38.2862 38.2386C38.7848 38.5668 39.3686 38.7308 40.0376 38.7308C40.7067 38.7308 41.2905 38.5668 41.7891 38.2386C42.2876 37.9105 42.6733 37.429 42.946 36.794C43.223 36.1591 43.3615 35.3793 43.3615 34.4545Z" fill="black"/>
<rect x="27" y="48" width="26" height="26" rx="1" fill="white"/>
<path d="M42.2393 58.674C42.1882 58.1584 41.9688 57.7578 41.581 57.4723C41.1932 57.1868 40.6669 57.044 40.0021 57.044C39.5504 57.044 39.169 57.108 38.858 57.2358C38.5469 57.3594 38.3082 57.532 38.142 57.7536C37.9801 57.9751 37.8991 58.2266 37.8991 58.5078C37.8906 58.7422 37.9396 58.9467 38.0462 59.1214C38.157 59.2962 38.3082 59.4474 38.5 59.5753C38.6918 59.6989 38.9134 59.8075 39.1648 59.9013C39.4162 59.9908 39.6847 60.0675 39.9702 60.1314L41.1463 60.4126C41.7173 60.5405 42.2415 60.7109 42.7188 60.924C43.196 61.1371 43.6094 61.3991 43.9588 61.7102C44.3082 62.0213 44.5788 62.3878 44.7706 62.8097C44.9666 63.2315 45.0668 63.7152 45.071 64.2607C45.0668 65.0618 44.8622 65.7564 44.4574 66.3445C44.0568 66.9283 43.4773 67.3821 42.7188 67.706C41.9645 68.0256 41.0547 68.1854 39.9893 68.1854C38.9325 68.1854 38.0121 68.0234 37.228 67.6996C36.4482 67.3757 35.8388 66.8963 35.3999 66.2614C34.9652 65.6222 34.7372 64.8317 34.7159 63.8899H37.3942C37.424 64.3288 37.5497 64.6953 37.7713 64.9893C37.9972 65.2791 38.2976 65.4986 38.6726 65.6477C39.0518 65.7926 39.4801 65.8651 39.9574 65.8651C40.4261 65.8651 40.8331 65.7969 41.1783 65.6605C41.5277 65.5241 41.7983 65.3345 41.9901 65.0916C42.1818 64.8487 42.2777 64.5696 42.2777 64.2543C42.2777 63.9602 42.1903 63.7131 42.0156 63.5128C41.8452 63.3125 41.5938 63.142 41.2614 63.0014C40.9332 62.8608 40.5305 62.733 40.0533 62.6179L38.6278 62.2599C37.5241 61.9915 36.6527 61.5717 36.0135 61.0007C35.3743 60.4297 35.0568 59.6605 35.0611 58.6932C35.0568 57.9006 35.2678 57.2081 35.6939 56.6158C36.1243 56.0234 36.7145 55.5611 37.4645 55.2287C38.2145 54.8963 39.0668 54.7301 40.0213 54.7301C40.9929 54.7301 41.8409 54.8963 42.5653 55.2287C43.294 55.5611 43.8608 56.0234 44.2656 56.6158C44.6705 57.2081 44.8793 57.8942 44.892 58.674H42.2393Z" fill="black"/>
<rect y="48" width="26" height="26" rx="1" fill="white"/>
<path d="M8.13778 68V54.9091H13.3793C14.3423 54.9091 15.1456 55.0518 15.7891 55.3374C16.4325 55.6229 16.9162 56.0192 17.2401 56.5263C17.5639 57.0291 17.7259 57.6087 17.7259 58.2649C17.7259 58.7763 17.6236 59.2259 17.419 59.6136C17.2145 59.9972 16.9332 60.3125 16.5753 60.5597C16.2216 60.8026 15.8168 60.9751 15.3608 61.0774V61.2053C15.8594 61.2266 16.326 61.3672 16.7607 61.6271C17.1996 61.8871 17.5554 62.2514 17.8281 62.7202C18.1009 63.1847 18.2372 63.7386 18.2372 64.3821C18.2372 65.0767 18.0646 65.6967 17.7195 66.2422C17.3786 66.7834 16.8736 67.2116 16.2045 67.527C15.5355 67.8423 14.7109 68 13.7308 68H8.13778ZM10.9055 65.7372H13.1619C13.9332 65.7372 14.4957 65.5902 14.8494 65.2962C15.2031 64.9979 15.38 64.6016 15.38 64.1072C15.38 63.745 15.2926 63.4254 15.1179 63.1484C14.9432 62.8714 14.6939 62.6541 14.37 62.4964C14.0504 62.3388 13.669 62.2599 13.2259 62.2599H10.9055V65.7372ZM10.9055 60.3871H12.9574C13.3366 60.3871 13.6733 60.321 13.9673 60.1889C14.2656 60.0526 14.5 59.8608 14.6705 59.6136C14.8452 59.3665 14.9325 59.0703 14.9325 58.7251C14.9325 58.2521 14.7642 57.8707 14.4276 57.581C14.0952 57.2912 13.6222 57.1463 13.0085 57.1463H10.9055V60.3871Z" fill="black"/>
</svg>
