<svg width="657" height="657" viewBox="0 0 657 657" fill="none" xmlns="http://www.w3.org/2000/svg">
<path d="M129.814 438.76C145.407 438.51 160.199 431.791 170.647 420.214L282.007 296.604C284.022 294.188 287.325 293.281 290.288 294.328L301.955 298.589C309.585 301.323 317.835 301.828 325.741 300.042C333.642 298.255 340.877 294.25 346.58 288.495L456.481 178.713L431.747 153.979L347.689 237.979L324.356 214.645L408.413 130.645L383.679 105.911L299.507 189.796L276.173 166.463L360.231 82.4627L335.439 57.6707L225.423 167.509C219.673 173.233 215.678 180.478 213.897 188.389C212.121 196.306 212.636 204.561 215.391 212.192L219.709 223.859H219.704C220.673 226.775 219.772 229.984 217.433 231.968L94.9332 342.801C83.1884 353.353 76.2199 368.213 75.6212 383.984C74.991 398.271 80.215 412.197 90.0906 422.547C100.184 433.172 114.227 439.145 128.883 439.052L129.814 438.76ZM110.677 384.916L110.683 384.921C110.995 378.578 113.881 372.635 118.672 368.468L241.172 257.635C247.547 252.01 252.073 244.588 254.157 236.343C256.24 228.098 255.776 219.416 252.839 211.436L248.579 199.769C247.626 197.009 248.381 193.952 250.506 191.952L251.672 190.785L322.839 262.769L321.672 263.878C319.683 266.014 316.61 266.769 313.855 265.8L302.188 261.54V261.545C294.209 258.618 285.532 258.17 277.292 260.248C269.047 262.332 261.625 266.847 255.989 273.212L144.516 396.758C140.615 401.081 135.11 403.613 129.287 403.758C124.068 403.826 119.057 401.712 115.464 397.925C112.178 394.415 110.454 389.722 110.683 384.92L110.677 384.916ZM361.504 314.447L361.509 314.452C355.817 320.166 351.895 327.395 350.207 335.275C348.525 343.16 349.145 351.363 351.999 358.9L356.374 370.567C357.374 373.145 356.676 376.072 354.624 377.921L235.332 484.785C223.973 495.04 217.239 509.452 216.665 524.744C215.999 539.186 221.316 553.26 231.363 563.65C241.571 574.312 255.691 580.344 270.445 580.338H271.32C286.487 580.25 300.924 573.843 311.164 562.661L419.138 442.38C420.987 440.322 423.914 439.63 426.487 440.63L438.153 445.004C445.684 447.869 453.877 448.494 461.757 446.807C469.632 445.119 476.851 441.192 482.549 435.494L547.648 370.161C564.143 353.718 571.664 330.311 567.831 307.338C564.508 287.775 555.179 269.739 541.143 255.723C527.107 241.702 509.055 232.406 489.487 229.109C466.517 225.228 443.085 232.708 426.606 249.177L361.504 314.447ZM477.764 263.114V263.119C479.717 263.119 481.67 263.27 483.598 263.587C495.983 265.692 507.404 271.598 516.291 280.478C525.171 289.364 531.077 300.785 533.181 313.171C535.166 324.979 531.322 337.015 522.859 345.483L457.583 410.994C455.713 412.853 452.931 413.447 450.468 412.51L438.801 408.135C430.926 405.15 422.332 404.609 414.145 406.577C405.958 408.541 398.552 412.926 392.891 419.161L284.973 538.978C281.4 542.947 276.333 545.254 270.989 545.343C265.646 545.431 260.505 543.296 256.801 539.442C253.374 535.843 251.604 530.983 251.9 526.026C252.088 520.192 254.661 514.692 259.015 510.802L377.843 403.703C384.082 398.047 388.484 390.646 390.457 382.458C392.437 374.27 391.9 365.676 388.926 357.796L384.551 346.13C383.582 343.666 384.176 340.864 386.067 339.01L451.166 273.911C458.16 266.937 467.655 263.052 477.53 263.119L477.764 263.114ZM328.671 656.98C371.717 657.053 414.354 648.621 454.135 632.174C493.916 615.726 530.056 591.59 560.49 561.143C614.282 507.492 647.807 436.846 655.344 361.25C662.881 285.656 643.964 209.783 601.817 146.57C559.672 83.3562 496.906 36.7202 424.218 14.6055C351.535 -7.50916 273.431 -3.73315 203.217 25.293C133.004 54.3236 75.0348 106.804 39.1908 173.786C3.34151 240.77 -8.16384 318.12 6.63883 392.64C21.4362 467.156 61.6175 534.24 120.341 582.44C179.06 630.642 252.686 656.992 328.662 656.986L328.671 656.98ZM121.644 122.3C176.562 67.4202 251.024 36.5975 328.671 36.6068C406.311 36.6225 480.764 67.4762 535.658 122.383C590.554 177.284 621.392 251.747 621.392 329.383C621.392 407.023 590.554 481.476 535.658 536.383C480.767 591.284 406.313 622.138 328.671 622.154C251.031 622.169 176.564 591.347 121.644 536.46C85.1028 500.215 58.8002 454.95 45.4148 405.252C32.0242 355.555 32.0242 303.2 45.4148 253.506C58.8002 203.812 85.1028 158.542 121.644 122.298V122.3Z" fill="#0F234E"/>
</svg>
