<svg width="561" height="654" viewBox="0 0 561 654" fill="none" xmlns="http://www.w3.org/2000/svg">
<path d="M497.547 373.92L460.308 357.718L460.115 357.634L413.631 337.41L413.464 337.337L375.953 321.015C385.646 305.635 391.417 288.113 392.756 269.984L396.6 210.667H408.996C412.089 210.667 415.058 209.437 417.246 207.25C419.433 205.062 420.662 202.094 420.662 199V152.333C420.662 149.24 419.433 146.271 417.246 144.083C415.058 141.896 412.089 140.667 408.996 140.667H397.329C397.355 115.864 389.444 91.7026 374.75 71.724C360.053 51.7453 339.344 37 315.662 29.6413V12.3346C315.662 9.2409 314.433 6.2721 312.246 4.08464C310.058 1.89717 307.089 0.667969 303.996 0.667969H257.329C250.886 0.667969 245.662 5.89197 245.662 12.3346V29.3453C222.053 36.9234 201.438 51.7666 186.772 71.7613C172.105 91.756 164.132 115.871 163.996 140.668H152.329C145.886 140.668 140.662 145.892 140.662 152.335V199.001C140.662 202.095 141.892 205.064 144.079 207.251C146.267 209.439 149.235 210.668 152.329 210.668H164.725L168.574 270.116C169.923 288.204 175.688 305.679 185.366 321.017L147.882 337.329L147.7 337.407L101.23 357.631L101.006 357.73L63.7876 373.928L63.7928 373.922C45.0274 382.079 29.0581 395.542 17.8394 412.657C6.62584 429.772 0.65678 449.788 0.662113 470.251V642.331C0.662113 645.424 1.89129 648.393 4.07878 650.581C6.26627 652.768 9.23505 653.997 12.3288 653.997H548.995C552.089 653.997 555.058 652.768 557.245 650.581C559.433 648.393 560.662 645.424 560.662 642.331V470.251C560.667 449.792 554.699 429.777 543.485 412.662C532.277 395.548 516.307 382.084 497.547 373.922V373.92ZM362.334 630.667H199.001V560.667H362.334V630.667ZM374.001 537.334H187.334C180.891 537.334 175.667 542.558 175.667 549V630.667H117.334V376.067L140.667 365.916V432.328C140.667 435.422 141.897 438.39 144.084 440.578C146.272 442.765 149.24 443.994 152.334 443.994H409.001C412.095 443.994 415.063 442.765 417.251 440.578C419.438 438.39 420.667 435.422 420.667 432.328V365.912L444.001 376.063V630.663H385.667V548.996C385.667 545.902 384.438 542.934 382.251 540.746C380.063 538.559 377.095 537.33 374.001 537.33V537.334ZM280.667 374C310.938 374.011 339.918 361.714 360.943 339.932L397.334 355.766V420.667H164.001V355.766L200.402 339.932C221.429 361.708 250.397 374.006 280.667 374ZM269.001 24.0002H292.334V70.6669H269.001V24.0002ZM245.667 54.1402V82.3336C245.667 85.4273 246.897 88.3961 249.084 90.5836C251.272 92.771 254.24 94.0002 257.334 94.0002H304.001C307.095 94.0002 310.063 92.7711 312.251 90.5836C314.438 88.3961 315.667 85.4273 315.667 82.3336V54.2456C332.886 61.2092 347.641 73.1522 358.032 88.5482C368.422 103.944 373.985 122.095 374.001 140.668H187.334C187.438 122.1 193.037 103.98 203.413 88.5856C213.793 73.1896 228.495 61.2056 245.667 54.1429V54.1402ZM164.001 164H397.334V187.334H164.001V164ZM373.214 210.667L369.48 268.35C368.136 286.808 360.969 304.366 349.021 318.5C332.152 338.886 307.068 350.683 280.605 350.667C254.146 350.651 229.074 338.823 212.236 318.412C200.34 304.339 193.205 286.86 191.85 268.48L188.111 210.668L373.214 210.667ZM24.0008 470.254C23.9956 454.336 28.6415 438.764 37.3648 425.451C46.0888 412.138 58.5101 401.664 73.1048 395.32L94.0008 386.226V630.666H24.0008V470.254ZM537.334 630.667H467.334V386.214L488.241 395.312V395.318C502.834 401.667 515.252 412.14 523.976 425.454C532.694 438.761 537.339 454.334 537.335 470.246L537.334 630.667ZM187.334 479C187.334 483.719 184.49 487.974 180.131 489.776C175.772 491.584 170.756 490.589 167.417 487.25C164.079 483.912 163.084 478.896 164.891 474.537C166.694 470.177 170.949 467.334 175.667 467.334C178.761 467.334 181.73 468.563 183.917 470.75C186.105 472.938 187.334 475.906 187.334 479ZM385.667 490.667C380.949 490.667 376.693 487.823 374.891 483.464C373.084 479.104 374.079 474.089 377.417 470.75C380.756 467.412 385.772 466.417 390.131 468.224C394.49 470.026 397.334 474.282 397.334 479C397.334 482.094 396.105 485.063 393.917 487.25C391.73 489.438 388.761 490.667 385.667 490.667Z" fill="#0F234E"/>
</svg>
