<svg width="677" height="689" viewBox="0 0 677 689" fill="none" xmlns="http://www.w3.org/2000/svg">
<path d="M350.333 497.92V397.003C350.333 390.56 345.109 385.336 338.667 385.336C332.224 385.336 327 390.56 327 397.003V497.92C326.995 521.816 321.427 545.384 310.735 566.753C298.427 591.389 292.011 618.545 292 646.087V677.004C292 683.447 297.224 688.671 303.667 688.671C310.109 688.671 315.333 683.447 315.333 677.004V646.087C315.339 622.191 320.906 598.623 331.599 577.253C334.234 571.894 336.593 566.404 338.666 560.805C340.739 566.399 343.099 571.889 345.734 577.243C356.427 598.617 361.994 622.185 361.999 646.087V677.004C361.999 683.447 367.223 688.671 373.666 688.671C380.109 688.671 385.333 683.447 385.333 677.004V646.087C385.322 618.545 378.906 591.389 366.598 566.753C355.905 545.384 350.339 521.816 350.333 497.92Z" fill="#0F234E"/>
<path d="M652.333 338.667C637.437 338.682 623.136 344.515 612.484 354.932C601.838 365.343 595.677 379.505 595.328 394.396C595.344 404.578 591.114 414.303 583.661 421.229V274.496C583.661 259.908 575.88 246.428 563.245 239.132C550.61 231.84 535.048 231.84 522.412 239.132C509.777 246.429 501.996 259.908 501.996 274.496V380.501C501.996 386.944 507.22 392.168 513.663 392.168C520.105 392.168 525.329 386.944 525.329 380.501V274.496C525.329 264.829 533.163 256.996 542.829 256.996C552.496 256.996 560.329 264.829 560.329 274.496V436.456L555.663 438.789C548.621 442.31 541.089 444.763 533.319 446.055C520.006 448.263 507.261 453.086 495.824 460.252C493.194 461.898 491.324 464.518 490.626 467.539C489.928 470.559 490.46 473.736 492.1 476.367C495.522 481.841 502.736 483.507 508.215 480.085C517.038 474.539 526.876 470.809 537.158 469.122C547.22 467.44 556.98 464.268 566.106 459.705L577.236 454.143C577.658 453.919 578.074 453.674 578.47 453.419L593.486 443.455C609.309 432.403 618.715 414.304 618.663 395.002C618.877 386.194 622.523 377.814 628.82 371.652C635.117 365.486 643.569 362.022 652.382 361.996C652.69 361.965 653.002 362.059 653.242 362.251C653.481 362.449 653.632 362.736 653.664 363.048V416.715C653.606 444.679 640.424 470.996 618.06 487.788L591.029 508.168H591.024C571.898 522.466 559.04 543.6 555.128 567.152C550.826 593.048 548.664 619.251 548.664 645.496V676.996C548.664 683.439 553.888 688.663 560.331 688.663C566.774 688.663 571.998 683.439 571.998 676.996V645.496C571.998 620.548 574.05 595.642 578.133 571.027C581.065 553.376 590.706 537.538 605.04 526.824L632.061 506.444V506.439C660.296 485.246 676.936 452.018 676.998 416.715V363.048C676.967 356.538 674.352 350.314 669.722 345.742C665.097 341.164 658.842 338.622 652.337 338.664L652.333 338.667Z" fill="#0F234E"/>
<path d="M524.907 206.84C539.948 191.736 550.746 172.939 556.204 152.335C561.663 131.731 561.59 110.053 556.001 89.4853C554.257 83.3342 547.887 79.7353 541.72 81.4124C535.553 83.0842 531.881 89.4124 533.486 95.6004C537.991 112.194 538.043 129.679 533.642 146.303C529.241 162.923 520.538 178.095 508.413 190.282L368.999 329.655C360.937 337.702 350.01 342.223 338.619 342.223C327.229 342.223 316.302 337.702 308.239 329.655L168.919 190.282C144.559 165.568 135.154 129.776 144.216 96.2817C153.279 62.7817 179.446 36.615 212.946 27.5524C246.44 18.4898 282.232 27.8961 306.946 52.255L330.419 75.7284C334.977 80.2805 342.362 80.2805 346.919 75.7284L370.392 52.255C388.695 33.9524 413.518 23.671 439.403 23.671C465.289 23.671 490.117 33.9522 508.419 52.255C510.471 54.3176 512.362 56.479 514.253 58.6613C516.216 61.104 519.086 62.6561 522.206 62.9634C525.325 63.2708 528.44 62.3072 530.841 60.2916C533.247 58.276 534.737 55.3749 534.976 52.25C535.221 49.1197 534.19 46.0312 532.128 43.6666C529.862 40.9584 527.518 38.3021 524.976 35.7552V35.7604C502.294 13.0777 471.539 0.339032 439.461 0.339032C407.387 0.339032 376.632 13.0786 353.95 35.7604L338.668 50.9844L323.502 35.7604C292.939 5.1977 248.398 -6.73964 206.652 4.44836C164.907 15.6358 132.298 48.2457 121.111 89.9897C109.924 131.735 121.861 176.276 152.423 206.839L160.439 214.865C155.361 221.417 152.418 229.365 152.001 237.641C139.355 231.641 124.517 232.537 112.684 240.016C100.856 247.49 93.6786 260.511 93.668 274.505V385.339C93.668 391.781 98.892 397.005 105.335 397.005C111.777 397.005 117.001 391.781 117.001 385.339V274.505C117.001 264.839 124.835 257.005 134.501 257.005C144.168 257.005 152.001 264.839 152.001 274.505V380.511C152.001 386.953 157.225 392.177 163.668 392.177C170.111 392.177 175.335 386.953 175.335 380.511V239.511C175.345 236.771 176.007 234.073 177.262 231.636L210.335 264.698V380.516C210.335 386.958 215.559 392.182 222.002 392.182C228.444 392.182 233.668 386.958 233.668 380.516V288.032L268.668 323.032V392.168C268.668 398.616 273.892 403.834 280.335 403.834C286.778 403.834 292.002 398.616 292.002 392.168V346.318C304.413 358.626 321.19 365.532 338.668 365.532C356.147 365.532 372.923 358.625 385.335 346.318V392.168C385.335 398.616 390.559 403.834 397.002 403.834C403.444 403.834 408.668 398.616 408.668 392.168V323.042L443.668 288.042V380.526C443.668 386.969 448.892 392.193 455.335 392.193C461.778 392.193 467.002 386.969 467.002 380.526V264.698L524.907 206.84Z" fill="#0F234E"/>
<path d="M315.333 268.667H362C365.094 268.667 368.063 267.438 370.25 265.25C372.437 263.063 373.667 260.094 373.667 257V222H408.667C411.76 222 414.729 220.771 416.917 218.583C419.104 216.396 420.333 213.427 420.333 210.333V163.667C420.333 160.573 419.104 157.604 416.917 155.417C414.729 153.229 411.76 152 408.667 152H373.667V117C373.667 113.906 372.437 110.938 370.25 108.75C368.063 106.563 365.094 105.333 362 105.333H315.333C308.891 105.333 303.667 110.557 303.667 117V152H268.667C262.224 152 257 157.224 257 163.667C257 170.109 262.224 175.333 268.667 175.333H315.333C318.427 175.333 321.396 174.104 323.583 171.917C325.771 169.729 327 166.761 327 163.667V128.667H350.333V163.667C350.333 166.761 351.563 169.729 353.75 171.917C355.937 174.104 358.906 175.333 362 175.333H397V198.667H362C355.557 198.667 350.333 203.891 350.333 210.333V245.334H327V210.333C327 207.24 325.771 204.271 323.583 202.083C321.396 199.896 318.427 198.667 315.333 198.667H268.667C262.224 198.667 257 203.891 257 210.333C257 216.776 262.224 222 268.667 222H303.667V257C303.667 260.094 304.896 263.063 307.083 265.25C309.271 267.438 312.24 268.667 315.333 268.667Z" fill="#0F234E"/>
<path d="M181.521 460.267C170.088 453.095 157.343 448.272 144.026 446.064C136.26 444.772 128.729 442.319 121.682 438.799L111.182 433.549L96.9272 424.075C87.3751 417.205 81.7965 406.091 81.9952 394.325C81.6254 379.44 75.4536 365.284 64.7979 354.888C54.1364 344.487 39.8392 338.664 24.9432 338.664C18.4484 338.633 12.2036 341.185 7.58853 345.758C2.9688 350.331 0.359325 356.549 0.328125 363.05V416.716C0.385417 452.003 17.0108 485.211 45.2241 506.41L72.3281 526.863L72.3229 526.858C86.6203 537.571 96.2349 553.384 99.1563 571.008C103.255 595.623 105.318 620.539 105.328 645.498V676.998C105.328 683.44 110.552 688.664 116.995 688.664C123.437 688.664 128.661 683.44 128.661 676.998V645.498C128.661 619.243 126.5 593.034 122.198 567.134C118.286 543.603 105.438 522.488 86.3339 508.207L59.2245 487.754C36.8805 470.967 23.7139 444.66 23.6619 416.718V363.051C23.7244 362.426 24.2608 361.963 24.8858 361.999C33.6931 362.009 42.1511 365.457 48.4591 371.603C54.7665 377.754 58.4279 386.119 58.6622 394.92C58.6101 414.275 68.0581 432.415 83.9435 443.467L98.8756 453.384C99.2714 453.639 99.6933 453.884 100.11 454.108L111.24 459.67H111.245C120.376 464.233 130.131 467.41 140.199 469.087C150.48 470.78 160.319 474.509 169.136 480.056C174.61 483.472 181.824 481.811 185.245 476.332C188.667 470.853 187.001 463.639 181.521 460.222L181.521 460.267Z" fill="#0F234E"/>
</svg>
