<svg width="613" height="613" viewBox="0 0 613 613" fill="none" xmlns="http://www.w3.org/2000/svg">
<path d="M8 7.66654V265.334C8 236.933 31.0205 213.881 59.4222 213.881C103.178 257.589 174.095 257.615 217.85 213.876L312.176 119.527C323.113 108.574 340.833 108.579 351.77 119.527C362.702 130.464 362.702 148.183 351.77 159.12L257.436 253.447L226.488 284.379C219.259 291.65 213.295 305.978 213.316 316.27V334.338H605.331V7.66357L8 7.66654ZM138.629 190.675C107.702 190.675 82.6293 165.601 82.6293 134.675C82.6293 103.753 107.708 78.6745 138.629 78.6745C169.551 78.6745 194.624 103.763 194.624 134.675C194.619 165.601 169.541 190.675 138.629 190.675Z" stroke="#0F234E" stroke-width="14.9333" stroke-miterlimit="10" stroke-linecap="round" stroke-linejoin="round"/>
<path d="M194.621 134.675C194.621 165.602 169.553 190.675 138.621 190.675C107.694 190.675 82.6211 165.602 82.6211 134.675C82.6211 103.743 107.694 78.6748 138.621 78.6748C169.553 78.6748 194.621 103.743 194.621 134.675Z" stroke="#0F234E" stroke-width="14.9333" stroke-miterlimit="10" stroke-linecap="round" stroke-linejoin="round"/>
<path d="M138.631 567.658C138.641 588.273 155.339 604.991 175.969 605.007C196.6 604.975 213.297 588.273 213.297 567.658L213.318 316.27C213.297 305.978 219.261 291.65 226.49 284.379L257.438 253.447L351.772 159.121C362.704 148.183 362.704 130.464 351.772 119.527C340.835 108.58 323.115 108.574 312.178 119.527L217.852 213.876C174.097 257.616 103.18 257.59 59.4241 213.881C31.0224 213.881 8.00195 236.933 8.00195 265.334V408.978C8.00195 424.441 20.528 436.978 35.9863 436.978C51.455 436.978 64.0018 424.446 63.9706 408.978L63.9639 316.233V567.658C63.9639 588.273 80.6721 604.991 101.297 605.007C121.928 604.975 138.631 588.273 138.631 567.658ZM138.631 567.658L138.646 436.984C138.631 436.984 138.631 567.658 138.631 567.658Z" stroke="#0F234E" stroke-width="14.9333" stroke-miterlimit="10" stroke-linecap="round" stroke-linejoin="round"/>
<path d="M586.666 436.993C586.666 467.92 561.593 492.993 530.666 492.993C499.739 492.993 474.666 467.92 474.666 436.993C474.666 406.061 499.739 380.993 530.666 380.993C561.593 380.993 586.666 406.061 586.666 436.993Z" stroke="#0F234E" stroke-width="14.9333" stroke-miterlimit="10" stroke-linecap="round" stroke-linejoin="round"/>
<path d="M530.666 539.659C501.218 539.659 474.718 527.175 455.984 507.305V604.999H605.333V507.313C586.598 527.182 560.124 539.659 530.666 539.659Z" stroke="#0F234E" stroke-width="14.9333" stroke-miterlimit="10" stroke-linecap="round" stroke-linejoin="round"/>
<path d="M390.666 436.993C390.666 467.92 365.593 492.993 334.666 492.993C303.739 492.993 278.666 467.92 278.666 436.993C278.666 406.061 303.739 380.993 334.666 380.993C365.593 380.993 390.666 406.061 390.666 436.993Z" stroke="#0F234E" stroke-width="14.9333" stroke-miterlimit="10" stroke-linecap="round" stroke-linejoin="round"/>
<path d="M334.666 539.659C305.208 539.659 278.719 527.175 259.992 507.29V604.998H409.326V507.304C390.596 527.179 364.114 539.659 334.666 539.659Z" stroke="#0F234E" stroke-width="14.9333" stroke-miterlimit="10" stroke-linecap="round" stroke-linejoin="round"/>
</svg>
