<svg width="775" height="747" viewBox="0 0 775 747" fill="none" xmlns="http://www.w3.org/2000/svg">
<path d="M398.107 632.227H83.347C67.7683 632.195 52.8363 625.987 41.8256 614.967C30.8152 603.941 24.6229 589.003 24.6123 573.42V170.487H681.572V430.433C681.572 436.913 686.822 442.162 693.301 442.162C699.775 442.162 705.031 436.913 705.031 430.433V158.767C711.937 76.0173 667.181 40.688 587.244 47.8653V47.8601C583.432 29.5481 571.369 14.0268 554.567 5.80277C537.769 -2.42123 518.108 -2.42123 501.307 5.80277C484.509 14.0268 472.447 29.5481 468.635 47.8601H411.864C408.046 29.5481 395.989 14.0268 379.187 5.80277C362.384 -2.42123 342.728 -2.42123 325.927 5.80277C309.124 14.0268 297.067 29.5481 293.255 47.8601H237.52C233.707 29.5481 221.651 14.0268 204.848 5.80277C188.045 -2.42123 168.389 -2.42123 151.588 5.80277C134.785 14.0268 122.728 29.5481 118.916 47.8601C39.484 40.5216 -6.06799 76.2614 1.12935 158.767V573.42C1.1658 595.223 9.84295 616.117 25.26 631.529C40.672 646.945 61.5667 655.623 83.3694 655.66H398.129C404.39 655.368 409.317 650.202 409.312 643.931C409.306 637.665 404.369 632.509 398.103 632.228L398.107 632.227ZM24.6136 130.093C27.0355 75.4533 74.1403 67.6773 118.942 71.3333C121.671 85.052 129.061 97.4013 139.863 106.287C150.66 115.172 164.202 120.047 178.186 120.089C184.665 120.089 189.915 114.839 189.915 108.36C189.915 101.881 184.665 96.6309 178.186 96.6309C168.368 96.6205 158.962 92.7142 152.019 85.7716C145.081 78.8341 141.175 69.4222 141.16 59.6102C141.42 47.9696 147.123 37.1262 156.572 30.3236C166.019 23.5214 178.108 21.5476 189.228 24.9954C200.347 28.4381 209.206 36.9069 213.149 47.8554H188.097C181.821 48.1419 176.878 53.3138 176.878 59.595C176.878 65.8814 181.821 71.0534 188.097 71.3346H293.258C295.988 85.064 303.394 97.4226 314.206 106.308C325.019 115.199 338.576 120.063 352.57 120.089C359.049 120.089 364.299 114.839 364.299 108.36C364.299 101.881 359.049 96.6309 352.57 96.6309C342.753 96.6205 333.341 92.7142 326.398 85.7768C319.456 78.8341 315.544 69.4274 315.523 59.6101C315.784 47.9694 321.487 37.1261 330.935 30.3234C340.383 23.5213 352.471 21.5474 363.591 24.9953C374.711 28.438 383.57 36.9068 387.513 47.8553H362.482C356.206 48.1418 351.263 53.3137 351.263 59.5949C351.263 65.8813 356.206 71.0533 362.482 71.3345H468.638C471.372 85.0638 478.774 97.4225 489.586 106.308C500.399 115.199 513.955 120.063 527.955 120.089C534.429 120.089 539.679 114.839 539.679 108.36C539.679 101.881 534.429 96.6308 527.955 96.6308C518.138 96.6204 508.731 92.7193 501.789 85.7818C494.846 78.8496 490.929 69.4432 490.903 59.6312C491.164 47.9957 496.867 37.1525 506.315 30.3498C515.763 23.5477 527.851 21.5738 538.971 25.0217C550.091 28.4644 558.95 36.928 562.893 47.8817H537.841C531.565 48.1682 526.622 53.3401 526.622 59.6213C526.622 65.9025 531.564 71.0744 537.841 71.3609H576.611C636.147 67.9442 686.231 73.1526 681.653 147.058H24.6125L24.6136 130.093ZM578.214 330.427C581.323 330.427 584.302 329.192 586.505 326.994C588.703 324.791 589.938 321.812 589.938 318.697V268.76C600.089 267.135 630.11 274.963 629.604 257.031C630.162 239.124 600.02 246.901 589.938 245.302C588.021 235.026 596.771 201.952 578.208 202.556C559.672 201.9 568.37 235.124 566.479 245.302L440.239 245.307C438.323 235.031 447.073 201.958 428.51 202.562C409.974 201.905 418.671 235.13 416.781 245.307H290.593C288.676 235.057 297.426 201.958 278.89 202.562C260.354 201.905 269.03 235.13 267.161 245.307H140.921C139.004 235.031 147.754 201.958 129.191 202.562C110.655 201.905 119.353 235.13 117.462 245.307C107.285 247.052 76.0035 238.838 76.5608 257.036C75.9567 275.208 107.331 267.041 117.462 268.765V389.625C107.285 391.344 76.0035 383.157 76.5608 401.328C75.9567 419.526 107.331 411.386 117.462 413.078V533.942C107.259 535.687 76.0035 527.474 76.5608 545.672C75.9567 563.822 107.358 555.677 117.462 557.375C119.379 567.651 110.629 600.724 129.191 600.12C147.727 600.776 139.03 567.579 140.921 557.375L267.161 557.369C269.077 567.645 260.327 600.719 278.89 600.115C297.4 600.771 288.728 567.573 290.593 557.369C301.082 555.359 336.967 564.494 336.41 545.666C337.04 526.838 300.983 535.974 290.593 533.937V413.077H416.786C418.843 423.567 409.515 459.989 428.515 459.405C447.417 460.061 438.208 423.473 440.245 413.077H500.557H500.551C507.031 413.077 512.281 407.827 512.281 401.348C512.281 394.874 507.031 389.624 500.551 389.624H440.239V268.76H566.433V318.697H566.438C566.438 321.812 567.672 324.791 569.87 326.994C572.068 329.192 575.052 330.427 578.162 330.427L578.214 330.427ZM140.92 268.76H267.16V389.624H140.92V268.76ZM267.16 533.947H140.92V413.083H267.16V533.947ZM416.787 389.627H290.594V268.763H416.787V389.627ZM774.36 514.924C772.985 510.674 769.324 507.575 764.907 506.924L643.126 489.236C564.157 333.409 591.875 334.449 513.178 489.236C340.605 516.179 350.111 490.158 473.027 612.815C445.309 785.335 423.549 768.135 578.163 689.164C733.63 768.883 710.559 784.268 683.278 612.815L771.403 526.919V526.913C774.591 523.804 775.735 519.158 774.36 514.924ZM662.486 600.336C652.262 601.013 678.016 709.153 677.022 714.653C670.917 713.758 577.068 656.184 572.828 665.585L479.49 714.653C478.474 708.622 504.183 601.471 494.026 600.336L418.52 526.721C423.947 523.862 533.76 515.258 531.676 505.133L578.37 410.633C582.781 414.946 624.87 516.691 633.859 511.628L738.219 526.773L662.486 600.336Z" fill="#0F234E"/>
</svg>
