<svg width="709" height="670" viewBox="0 0 709 670" fill="none" xmlns="http://www.w3.org/2000/svg">
<path d="M215.04 453.307C191.144 439.869 170.988 409.255 156.8 367.443H215.784C217.279 359.229 221.013 351.76 226.237 345.041H150.076C142.607 316.667 138.128 285.307 137.383 252.453H229.971V340.557C235.945 333.839 243.408 329.36 252.372 326.369V252.448H344.96C344.216 277.088 341.976 300.979 337.492 323.38H359.893C363.627 300.979 366.612 277.833 366.612 252.448H459.2C459.2 257.677 458.455 262.156 457.705 267.38H480.106C480.851 259.167 481.601 250.208 481.601 241.244C481.601 108.337 373.336 0.0708008 240.428 0.0708008C108.261 0.0760088 0.000976562 108.347 0.000976562 242.004C0.000976562 374.165 106.772 481.684 238.188 483.177V482.433C232.958 479.448 229.974 477.203 229.229 476.459C221.76 471.235 216.531 462.271 215.041 453.313L215.04 453.307ZM459.947 230.8H367.359C366.614 197.201 362.129 165.841 355.411 138.212H433.812C449.495 165.092 458.452 197.196 459.948 230.8H459.947ZM420.373 115.065H349.441C338.243 80.7161 323.305 51.5961 304.639 31.4401C351.68 46.3721 391.999 76.2375 420.373 115.065ZM252.373 23.9721C282.237 30.6909 308.373 65.7841 325.545 115.811H252.373V23.9721ZM252.373 137.467H332.264C339.733 165.841 344.212 197.201 344.957 230.055L252.373 230.05L252.373 137.467ZM229.972 230.8H137.384C138.129 197.201 142.613 165.841 150.077 138.212H229.973L229.972 230.8ZM229.972 23.9735V115.812H156.8C173.972 65.7855 200.103 30.6921 229.972 23.9735ZM178.451 32.1871C159.784 52.3484 144.852 80.7177 133.648 115.812H62.7159C90.3466 76.2391 130.664 46.3751 178.451 32.1871ZM48.5292 137.468H126.931C120.212 165.843 115.733 197.203 114.983 230.056L23.144 230.051C24.6388 197.197 33.597 165.094 48.5292 137.468ZM23.1439 252.452H115.732C116.477 286.051 120.211 317.411 127.68 345.04H48.5291C33.5971 317.41 24.6386 286.051 23.1439 252.452ZM62.7172 367.436H133.649C144.847 401.786 159.785 430.906 178.452 451.062C130.665 436.879 90.3479 407.015 62.7172 367.436Z" fill="#0F234E"/>
<path d="M676.48 345.787H548.053V321.891C548.053 303.969 533.865 289.787 515.949 289.787H430.829C412.908 289.787 398.725 303.975 398.725 321.891V345.787H270.293C252.372 345.787 237.438 360.719 237.438 378.641V448.829C237.438 452.564 238.933 455.548 241.918 457.788C242.662 458.532 249.386 463.017 260.584 468.986V636.986C260.584 654.907 275.516 669.84 293.439 669.84H652.586C670.507 669.84 685.44 654.908 685.44 636.986V468.986C696.638 463.012 703.362 458.532 704.107 457.788C707.091 455.548 708.586 452.559 708.586 448.829V378.641C709.336 360.72 694.404 345.787 676.482 345.787H676.48ZM421.12 321.896C421.12 316.667 425.599 312.188 430.828 312.188H515.203C520.432 312.188 524.911 316.667 524.911 321.896V345.792H420.38L420.375 321.896H421.12ZM663.787 636.989C663.787 642.963 658.557 648.187 652.589 648.187L293.442 648.192C287.468 648.192 282.244 642.963 282.244 636.995V480.195C312.108 493.632 356.911 509.315 415.151 516.033V541.419C415.151 547.393 420.38 552.616 426.349 552.616H519.682C525.656 552.616 530.88 547.387 530.88 541.419V516.033C589.12 509.314 633.921 493.632 663.787 480.195V636.989ZM437.546 530.219V488.407H508.478V530.219H437.546ZM686.933 442.859C682.454 445.843 674.985 450.327 664.532 454.806H663.787C636.907 467.499 591.36 485.421 530.88 492.885V475.713C530.88 469.739 525.651 464.515 519.683 464.515L426.349 464.51C420.375 464.51 415.151 469.739 415.151 475.708V492.88C354.673 485.411 309.125 467.495 282.245 454.801H281.5C271.047 449.572 263.578 445.093 259.098 442.853V378.64C259.098 372.666 264.328 367.442 269.552 367.442H675.738C681.712 367.442 686.936 372.671 686.936 378.64L686.933 442.859Z" fill="#0F234E"/>
</svg>
