<svg width="659" height="655" viewBox="0 0 659 655" fill="none" xmlns="http://www.w3.org/2000/svg">
<path d="M297.76 72.3814C315.011 72.3814 328.989 86.1881 328.989 103.215C328.989 120.245 315.011 134.048 297.76 134.048H62.4533V593.115H527.4V359.421C527.4 342.391 541.384 328.588 558.629 328.588C575.88 328.588 589.859 342.391 589.859 359.421V593.115C589.859 627.172 561.895 654.781 527.4 654.781H62.4533C27.9587 654.781 0 627.172 0 593.115V134.048C0 99.9907 27.9587 72.3814 62.4533 72.3814H297.76ZM498.213 75.8345L582.687 160.313L308.02 434.98C302.801 440.199 296.004 443.553 288.687 444.527L202.551 455.969L213.993 369.833C214.967 362.516 218.321 355.724 223.545 350.5L498.213 75.8345ZM564.208 9.8398C577.328 -3.27993 598.604 -3.27993 611.724 9.8398L648.683 46.7985C661.808 59.9182 661.808 81.1945 648.683 94.3145L614.365 128.637L529.892 44.1585L564.208 9.8398Z" fill="white"/>
</svg>
