<svg width="30" height="30" viewBox="0 0 30 30" fill="none" xmlns="http://www.w3.org/2000/svg">
<path fill-rule="evenodd" clip-rule="evenodd" d="M17.2162 0C13.9403 0 10.6637 1.24371 8.17217 3.73498C3.54786 8.35885 3.21722 15.6868 7.17607 20.6995L0.440714 27.4342C0.158627 27.7155 0 28.0975 0 28.496C0 28.8944 0.158627 29.2764 0.440714 29.5581C0.722384 29.841 1.10492 30 1.5042 30C1.90348 30 2.28601 29.841 2.56768 29.5581L9.30304 22.8234C14.317 26.776 21.6438 26.4516 26.266 21.8303C31.2486 16.8477 31.2427 8.71719 26.2601 3.7355C23.7686 1.24422 20.492 0 17.2162 0ZM17.2191 2.97627C19.7227 2.97417 22.2268 3.9321 24.1449 5.85001C27.9812 9.68591 27.9812 15.8703 24.1449 19.7066C20.3087 23.5425 14.1295 23.5366 10.2934 19.7008C6.45716 15.8649 6.45716 9.69505 10.2934 5.85915C12.2115 3.94125 14.7154 2.9783 17.2191 2.97627Z" fill="white"/>
</svg>
