<svg width="378" height="501" viewBox="0 0 378 501" fill="none" xmlns="http://www.w3.org/2000/svg">
<path d="M49.7949 21.5688H237.677V262.293H49.7949V21.5688Z" fill="#D9D9D9"/>
<path d="M158.415 208.432C173.093 169.29 212.888 166.68 235.721 169.29H246.484L241.592 269.102L45.8809 266.167L46.8602 239.746C45.5554 240.072 45.6859 239.55 56.6457 234.853C67.6055 230.156 86.6546 232.896 94.8092 234.853H103.616C121.622 234.853 131.342 231.591 133.951 229.96C140.149 227.351 153.718 219.392 158.415 208.432Z" fill="#8CBAFA"/>
<path fill-rule="evenodd" clip-rule="evenodd" d="M28.2688 15.6974C28.2688 10.4784 30.0302 0.0405074 37.0758 0.0405074H249.422C252.684 -0.285677 259.207 1.21477 259.207 9.82604C259.207 18.4373 257.903 194.12 257.25 280.885L235.722 283.821H46.4257C46.083 283.821 45.7289 283.823 45.3653 283.825C37.884 283.87 26.4008 283.938 28.2688 266.207V245.658V15.6974ZM237.678 21.5688H49.7953V262.293H237.678V21.5688Z" fill="#6A7193"/>
<path d="M283.669 234.875C286.605 238.789 293.455 247.596 297.369 251.511L304.219 256.381C302.588 258.99 294.238 266.558 277.798 272.038L277.686 272.118C270.916 276.953 268.071 278.984 278.776 296.502C287.388 310.593 277.472 327.489 271.927 331.73C268.338 334.991 261.162 349.344 261.162 355.215C261.162 355.215 258.227 351.301 257.248 343.495C256.27 335.689 257.248 335.079 257.248 324.902C257.248 314.725 252.029 308.919 249.42 307.288C246.158 304.679 238.851 296.72 235.72 285.76C231.806 272.06 236.699 258.361 238.656 254.446C241.787 244.269 238.003 235.854 235.72 232.918C231.48 229.983 223.195 221.176 223.978 209.433C224.76 197.69 233.437 191.493 237.677 189.862C246.484 187.252 266.055 185.165 273.884 197.69C275.107 199.647 277.798 203.562 280.734 211.39C282.796 219.64 278.92 226.959 283.669 234.875Z" fill="#C9EA6E"/>
<path d="M270.949 250.591L279.755 270.081L268.991 280.926L258.228 256.463C255.291 245.698 268.013 243.741 270.949 250.591Z" fill="#7FAB38"/>
<path d="M372.718 249.531C375.066 224.48 360.648 216.26 351.189 215.282C332.596 213.325 325.747 221.153 319.876 226.046C315.179 229.96 310.743 240.724 309.112 245.617C307.807 250.184 301.675 260.491 287.584 265.188C273.492 269.885 269.317 278.235 268.991 281.823C268.991 283.781 270.361 289.848 275.841 298.459C282.691 309.223 279.755 312.159 278.777 314.116C277.994 315.681 273.231 322.596 270.948 325.858C267.686 331.077 261.162 343.081 261.162 349.344C259.206 356.193 263.445 367.936 266.055 373.807L268.99 379.679H314.982L322.811 358.151L317.918 334.665L337.489 307.266C344.991 301.721 356.083 288.086 356.083 281.823C358.431 270.864 359.671 264.536 360.975 263.231C363.585 260.948 371.152 256.577 372.718 249.531Z" fill="#AED559"/>
<path d="M313.026 363.043C309.894 367.74 308.459 372.829 308.133 374.786L310.09 375.764C315.309 376.417 326.334 377.134 328.682 374.786C331.031 372.437 332.037 365.699 330.64 360.108C329.661 356.193 328.682 352.866 328.682 339.558C328.682 326.25 337.489 321.944 343.361 319.987C351.842 316.725 367.042 307.266 359.996 291.609C359.018 272.038 364.889 267.145 372.717 259.317C382.503 241.703 374.674 231.917 370.76 226.046C366.063 217.435 355.756 214.956 351.189 215.282C354.321 215.282 357.713 223.436 359.018 227.024C360.649 230.939 362.54 240.724 357.06 248.553C352.168 254.424 350.211 256.381 346.296 263.231C342.382 270.081 343.361 282.802 345.318 292.587C344.535 302.764 337.163 307.918 333.575 309.223C329.987 309.875 321.05 312.941 314.004 319.987C309.307 327.815 310.742 337.601 312.047 341.515C313.352 347.06 315.374 359.129 313.026 363.043Z" fill="#7FAB38"/>
<path d="M321.832 290.922C306.958 312.059 304.544 355.18 305.197 374.099C302.587 375.077 296.39 377.23 292.476 378.013C287.583 378.991 290.519 352.57 290.519 345.721C290.519 338.871 294.433 318.321 304.219 294.836C312.047 276.048 324.442 260.26 329.661 254.715C340.425 243.951 348.254 256.674 343.361 261.565C342.382 262.544 336.706 269.785 321.832 290.922Z" fill="#7FAB38"/>
<path d="M338.468 373.807H318.897H305.197L299.326 493.191H322.811C332.988 491.625 334.518 488.298 335.533 481.448C339.447 455.027 347.667 399.054 349.232 386.529C349.232 376.352 342.056 373.807 338.468 373.807Z" fill="#C1762B"/>
<path d="M249.123 481.448C249.123 488.494 254.995 491.56 257.93 492.212H301.965C307.445 492.212 310.12 482.427 310.772 477.534C313.708 457.311 320.166 412.558 322.515 395.336C326.429 379.679 320.884 374.46 317.622 373.807H266.734H249.123C235.032 373.807 234.771 384.245 236.402 389.464C240.643 417.19 249.123 474.403 249.123 481.448Z" fill="#F9AA4B"/>
<circle cx="104.595" cy="68.4987" r="23.4853" fill="#FFCD34"/>
<path d="M136.887 412.95L131.994 400.228L90.895 414.907H83.0666L39.0317 400.228L31.2033 411.971L63.4955 422.735L31.2033 434.478L27.2891 451.113L84.0452 430.564H86.9808L144.715 452.092L142.758 435.456L108.509 422.735L136.887 412.95Z" fill="#6A7193"/>
<path d="M165.265 482.427L135.908 365H121.23L151.565 486.341C156.458 509.826 172.115 501.019 165.265 482.427Z" fill="#8CBAFA"/>
<path d="M17.5035 495.148L49.7957 367.936H35.1174L3.80371 490.255C3.80371 503.955 15.5464 501.019 17.5035 495.148Z" fill="#8CBAFA"/>
<path d="M139.301 367.737H48.6241C27.1762 362.886 11.5753 331.837 48.6241 321.164H139.301C184.151 317.283 179.276 371.618 139.301 367.737Z" fill="#AA4B44"/>
<path d="M113.404 367.936H22.3952C0.86878 363.043 -14.7892 331.73 22.3952 320.965H113.404C158.418 317.051 153.525 371.85 113.404 367.936Z" fill="#CE675D"/>
</svg>
