<svg width="1439" height="245" viewBox="0 0 1439 245" fill="none" xmlns="http://www.w3.org/2000/svg">
<path d="M0 75.4704L72.6173 94.2696C150.62 114.463 232.062 117.586 311.382 103.425L626.517 47.1655C739.531 26.9896 854.935 23.9094 968.864 38.0281L1086.76 52.6389C1139.19 59.1355 1192.34 56.4536 1243.85 44.7135L1303 31.2291L1440 0V245H0V75.4704Z" fill="white"/>
<path d="M0 75.4704L35.8611 84.7541C137.153 110.977 246.442 115.019 350.733 96.4L570.657 57.1379C720.027 30.4715 875.083 26.4064 1026.61 45.1841L1060.29 49.3586C1129.81 57.9738 1201.07 54.463 1268.46 39.103L1303 31.2291L1440 0V245H0V75.4704Z" fill="white"/>
</svg>
