<svg width="54" height="54" viewBox="0 0 54 54" fill="none" xmlns="http://www.w3.org/2000/svg">
<path fill-rule="evenodd" clip-rule="evenodd" d="M52.6676 18.8355C53.3137 19.2455 53.725 19.7733 53.9012 20.4765L53.9009 20.4762C54.0771 21.1209 54.0185 21.8241 53.7243 22.4684C53.3134 23.1131 52.7845 23.5236 52.0798 23.6994C50.729 23.9925 49.3783 23.2893 48.9084 21.9999H39.2177V24.9304H44.2102C44.5038 24.1099 45.15 23.4652 46.0308 23.2309C46.7355 23.0551 47.3815 23.1136 48.0276 23.524C48.6737 23.9341 49.0851 24.4619 49.2612 25.1651C49.4374 25.8683 49.3788 26.5129 48.9675 27.1577C48.5566 27.8024 48.0276 28.2128 47.323 28.3886C46.6183 28.5644 45.9136 28.4471 45.3261 28.0955C44.7391 27.7435 44.3863 27.2751 44.1516 26.6888H39.1591V30.2055H49.8485L49.8489 39.8172C50.6711 40.1104 51.3172 40.814 51.5519 41.6929C51.9043 43.0992 51.0234 44.506 49.6137 44.8575C48.2045 45.2092 46.7947 44.3302 46.4424 42.9235C46.0895 41.5756 46.8533 40.2277 48.1454 39.8172V32.1397L39.0429 32.1389V38.586H37.5746V44.271C38.3968 44.564 39.0429 45.2088 39.2777 46.0877C39.6886 47.4945 38.8077 48.9597 37.398 49.3113C36.6933 49.4871 35.9887 49.3697 35.4012 49.0181C34.7551 48.6081 34.3437 48.0803 34.1676 47.3771C33.9914 46.6739 34.109 45.9708 34.4613 45.3845C34.814 44.7987 35.2835 44.4467 35.871 44.2125V38.5275H32.993V48.9012C33.8152 49.1943 34.4613 49.839 34.696 50.718C34.8722 51.4212 34.7546 52.1243 34.4023 52.7106C33.9914 53.3553 33.4624 53.7657 32.7578 53.9415C32.5816 54 32.3464 54 32.1117 54C31.6418 54 31.1723 53.8827 30.7609 53.6484C30.1148 53.2384 29.7035 52.7106 29.5273 52.0074C29.2336 50.6595 29.9383 49.3117 31.2304 48.8428V38.469H28.3524V44.154C29.1746 44.447 29.8206 45.0918 30.0554 45.9707C30.4663 47.3776 29.5854 48.8427 28.1757 49.1943C27.471 49.3701 26.7664 49.2528 26.1789 48.9012C25.5328 48.4911 25.1215 47.9633 24.9453 47.2601C24.6515 45.9123 25.3562 44.5644 26.6484 44.0955V38.352H23.1832V48.6084H13.6686C13.3748 49.4289 12.6697 50.0736 11.7889 50.3079C10.3796 50.6595 8.96986 49.7805 8.61752 48.3738C8.26512 46.9675 9.14602 45.5608 10.5557 45.2092C11.9065 44.8571 13.2572 45.6192 13.6686 46.9086H21.4215L21.4211 38.4105H14.667V36.9453H9.85072C9.55705 37.7658 8.91092 38.4105 8.0301 38.6447C7.3254 38.8205 6.62078 38.7032 6.03328 38.3516C5.38717 37.9416 4.97584 37.4138 4.79967 36.7106C4.38875 35.3038 5.26964 33.8386 6.67934 33.487C7.38403 33.3112 8.08866 33.4286 8.67616 33.7802C9.26322 34.1321 9.61596 34.6006 9.85072 35.1869H14.667V32.2565L5.09344 32.2569C4.74104 33.312 3.74269 34.0152 2.62666 34.0152C1.4521 34.0152 0.395093 33.1947 0.101344 32.0226C-0.309578 30.6158 0.571313 29.1507 1.98101 28.7991C3.33177 28.5059 4.68247 29.2091 5.15239 30.4985H14.667V27.5681H9.79251C9.49884 28.3886 8.85272 29.0333 7.97189 29.2675C7.2672 29.4433 6.56257 29.326 5.97507 28.9744C5.32896 28.5644 4.91763 28.0366 4.74146 27.3334C4.5653 26.6302 4.68288 25.9271 5.03521 25.3408C5.44614 24.6961 5.97507 24.2856 6.67974 24.1098C7.38443 23.934 8.08906 24.0514 8.67656 24.403C9.26362 24.7549 9.61636 25.2234 9.85111 25.8097H14.726V22.293H5.32846V12.857C4.50624 12.5639 3.86016 11.8603 3.62541 10.9814C3.44924 10.2782 3.56683 9.57505 3.91916 8.9888C4.27156 8.40299 4.85901 7.99253 5.56369 7.81674C6.26838 7.64095 6.97301 7.75828 7.5605 8.10986C8.14756 8.46151 8.55889 9.04772 8.73506 9.75089C9.08788 11.0988 8.32414 12.4467 7.03201 12.8571V20.5347H14.667L14.6662 13.678H16.4283V9.75121C15.6061 9.45816 14.96 8.81341 14.7252 7.93446C14.5491 7.23126 14.6666 6.52813 15.019 5.94188C15.4299 5.29715 15.9588 4.8867 16.6635 4.7109C17.3682 4.53511 18.0728 4.65244 18.6603 5.00403C19.3064 5.41408 19.7178 5.94188 19.8939 6.64506C20.1877 7.99294 19.483 9.34077 18.1909 9.80969V13.7364H21.1275V5.12104C20.3053 4.82799 19.6592 4.18324 19.4245 3.30429C19.2483 2.60109 19.3659 1.89796 19.7182 1.31171C20.1291 0.666983 20.6581 0.256527 21.3628 0.0807338C22.0674 -0.0950593 22.7721 0.0222722 23.3596 0.373858C24.0057 0.783906 24.417 1.31171 24.5932 2.01489C24.8869 3.36277 24.1823 4.7106 22.8901 5.17952L22.8897 13.7949H25.8264V9.86817C25.0041 9.57513 24.3581 8.93038 24.1233 8.05142C23.9472 7.34823 24.0647 6.6451 24.4171 6.05885C24.828 5.41412 25.3569 5.00366 26.0616 4.82787C27.4714 4.41782 28.9397 5.29684 29.292 6.70354C29.4682 7.40673 29.3506 8.10986 28.9983 8.69611C28.6456 9.28192 28.1761 9.63392 27.5886 9.86817V13.7949H31.1128V4.18318L40.6864 4.18277C40.9801 3.3623 41.6852 2.7176 42.566 2.48334C43.2707 2.30755 43.9753 2.42488 44.5628 2.77647C45.1499 3.12812 45.5612 3.71432 45.7374 4.4175C46.0898 5.82378 45.2089 7.23054 43.7992 7.58213C42.4485 7.9342 41.0977 7.17208 40.6864 5.8827H32.7572V13.7946H39.218V15.5529H44.2105C44.5042 14.7325 45.1503 14.0878 46.0312 13.8535C46.7359 13.6777 47.4405 13.7951 48.028 14.1466C48.6741 14.5567 49.0854 15.0845 49.2616 15.7877C49.4378 16.4909 49.3202 17.194 48.9678 17.7802C48.5569 18.425 48.028 18.8354 47.3233 19.0112C45.9726 19.3044 44.6219 18.6012 44.1519 17.3118H39.1594V20.2422L48.8502 20.2418C49.1438 19.4213 49.79 18.7766 50.6708 18.5424C51.3755 18.3666 52.0801 18.4839 52.6676 18.8355ZM51.3759 22.0002C51.8454 22.0002 52.2567 21.5901 52.2567 21.1212C52.2567 20.6523 51.8454 20.2423 51.3754 20.2423C50.9059 20.2423 50.4946 20.6523 50.4946 21.1212C50.4946 21.5901 50.9059 22.0002 51.3759 22.0002ZM49.0263 43.0991C49.4958 43.0991 49.9072 42.6891 49.9072 42.2202C49.9072 41.7513 49.4962 41.3408 49.0263 41.3412C48.5568 41.3412 48.1455 41.7512 48.1455 42.2202C48.1455 42.6887 48.5564 43.0991 49.0263 43.0991ZM37.8667 46.6154C37.8667 46.1469 37.4558 45.7365 36.9859 45.7365C36.516 45.7365 36.105 46.1469 36.105 46.6158C36.105 47.0843 36.516 47.4948 36.9859 47.4948C37.4558 47.4948 37.8671 47.0843 37.8667 46.6154ZM33.168 51.3042C33.168 50.8357 32.757 50.4252 32.2871 50.4252C31.8176 50.4252 31.4063 50.8357 31.4063 51.3046C31.4063 51.7731 31.8172 52.1835 32.2871 52.1835C32.757 52.1835 33.1684 51.7731 33.168 51.3042ZM6.15075 9.39966C5.68125 9.39966 5.26992 9.8097 5.26992 10.2786C5.26992 10.7475 5.68085 11.158 6.15075 11.158C6.62066 11.158 7.03199 10.7475 7.03158 10.2786C7.03158 9.81012 6.62067 9.39966 6.15075 9.39966ZM16.4292 15.5533V36.6523H37.5731V15.5533H16.4292ZM16.4296 7.34837C16.4296 7.81687 16.8405 8.22733 17.3104 8.22733C17.7799 8.22733 18.1913 7.81688 18.1913 7.34837C18.1913 6.87988 17.7804 6.46942 17.3104 6.46942C16.8409 6.46942 16.4296 6.87946 16.4296 7.34837ZM21.1279 2.65962C21.1279 3.12812 21.5393 3.53857 22.0088 3.53857C22.4787 3.53857 22.89 3.12813 22.89 2.65962C22.89 2.19071 22.4787 1.78025 22.0088 1.78025C21.5393 1.78025 21.1279 2.1907 21.1279 2.65962ZM26.7075 6.46894C26.238 6.46894 25.8266 6.87898 25.8266 7.34789C25.8266 7.8168 26.2376 8.22726 26.7075 8.22726C27.1774 8.22726 27.5887 7.81681 27.5883 7.34789C27.5883 6.87939 27.1774 6.46894 26.7075 6.46894ZM28.4696 46.6152C28.4696 46.1467 28.0586 45.7362 27.5887 45.7362C27.1188 45.7362 26.7075 46.1467 26.7079 46.6156C26.7079 47.0841 27.1188 47.4946 27.5887 47.4946C28.0582 47.4946 28.4696 47.0841 28.4696 46.6152ZM46.6768 15.5532C46.2073 15.5532 45.796 15.9632 45.796 16.4322C45.796 16.9011 46.2073 17.3115 46.6772 17.3111C47.1467 17.3111 47.558 16.9011 47.558 16.4322C47.558 15.9632 47.1467 15.5532 46.6768 15.5532ZM43.153 4.12461C42.6835 4.12461 42.2722 4.53465 42.2722 5.00357C42.2722 5.47247 42.6831 5.88252 43.153 5.88252C43.6229 5.88252 44.0339 5.47248 44.0339 5.00357C44.0339 4.53507 43.6229 4.12461 43.153 4.12461ZM7.3262 27.5675C7.7957 27.5675 8.20703 27.1575 8.20703 26.6886C8.20703 26.2197 7.79571 25.8096 7.32579 25.8096C6.85629 25.8096 6.44496 26.2197 6.44496 26.6886C6.44496 27.1575 6.85628 27.5679 7.3262 27.5675ZM2.62745 32.2563C3.09695 32.2563 3.50828 31.8463 3.50828 31.3773C3.50828 30.9084 3.09696 30.4984 2.62745 30.4984C2.15754 30.4984 1.74621 30.9084 1.74621 31.3773C1.74621 31.8462 2.15753 32.2563 2.62745 32.2563ZM7.3262 36.9451C7.7957 36.9451 8.20703 36.535 8.20703 36.0661C8.20703 35.5972 7.79571 35.1867 7.32579 35.1871C6.85629 35.1871 6.44496 35.5972 6.44496 36.0661C6.44496 36.535 6.85628 36.9451 7.3262 36.9451ZM11.1436 48.6667C11.6131 48.6667 12.0245 48.2566 12.0245 47.7877C12.0245 47.3188 11.6135 46.9084 11.1436 46.9084C10.6737 46.9084 10.2624 47.3188 10.2628 47.7877C10.2628 48.2562 10.6737 48.6667 11.1436 48.6667ZM46.6768 24.9307C46.2073 24.9307 45.796 25.3408 45.796 25.8097C45.796 26.2786 46.2073 26.6886 46.6772 26.6886C47.1467 26.6886 47.558 26.2786 47.558 25.8097C47.558 25.3408 47.1467 24.9303 46.6768 24.9307ZM36 35H18V17H36V35ZM34.2 33.2V18.8L19.8 18.8004V33.2004L34.2 33.2Z" fill="#0F234E"/>
</svg>
