<svg width="596" height="586" viewBox="0 0 596 586" fill="none" xmlns="http://www.w3.org/2000/svg">
<path d="M139.385 208.213H102.797V140.265C102.797 129.812 111.01 121.599 121.464 121.599C131.917 121.599 140.13 129.812 140.13 140.265L140.135 208.213H139.385ZM118.478 192.531H124.452V140.265C124.452 137.281 118.478 137.281 118.478 140.265V192.531Z" fill="#0F234E"/>
<path d="M63.9728 208.213H27.3848V140.265C27.3848 129.812 35.5984 121.599 46.0514 121.599C56.5045 121.599 64.7181 129.812 64.7181 140.265V208.213H63.9728ZM42.3168 192.531H48.2908V140.265C48.2908 137.281 42.3168 137.281 42.3168 140.265V192.531Z" fill="#0F234E"/>
<path d="M83.3859 332.906C37.8392 332.906 0.505859 295.573 0.505859 250.027V200.745C0.505859 196.266 4.24026 193.276 7.97466 193.276L158.801 193.282C163.281 193.282 166.27 197.016 166.27 200.75V250.032C166.265 295.573 128.933 332.906 83.3859 332.906ZM15.4379 208.213V250.025C15.4379 287.359 46.0525 317.222 82.6352 317.222C119.223 317.222 149.833 286.608 149.833 250.025V208.213H15.4379Z" fill="#0F234E"/>
<path d="M335.759 585.28C192.399 585.28 75.1719 468.801 75.1719 324.693C75.1719 320.214 78.9063 317.225 82.6407 317.225C86.3751 317.225 90.1095 320.959 90.1095 324.693C90.8543 459.84 200.615 569.6 335.763 569.6C470.909 569.6 580.669 459.84 580.669 324.693C580.669 189.547 470.909 79.7867 335.763 79.7867H328.294V8.10406C328.294 3.62486 332.028 0.635254 335.763 0.635254C340.242 0.635254 343.232 4.36966 343.232 8.10406V64.1041C483.605 68.5833 595.605 183.573 595.605 324.691C596.35 468.051 479.121 585.277 335.765 585.277L335.759 585.28Z" fill="#0F234E"/>
<path d="M288.719 485.974C287.224 485.974 285.735 485.974 284.985 485.229C282 482.989 280.505 479.255 282 475.52L329.787 349.333H263.334C261.094 349.333 258.104 347.838 256.615 345.598C255.12 343.358 255.12 341.119 255.87 338.129L317.843 181.329C319.338 178.345 321.578 176.1 325.312 176.1H403.713C405.953 176.1 408.943 177.595 410.432 179.835C411.927 182.074 411.927 184.314 411.177 187.303L377.578 274.663H453.74C456.724 274.663 459.714 276.158 460.459 279.143C461.953 282.127 461.203 285.117 459.714 287.356L294.687 482.983C293.192 484.478 290.953 485.972 288.713 485.972L288.719 485.974ZM274.531 333.654H340.239C342.479 333.654 345.468 335.148 346.958 336.638C348.453 338.878 348.453 341.117 347.703 344.107L311.864 438.185L436.557 290.345H365.625C363.386 290.345 360.396 288.851 358.907 286.611C357.412 284.371 357.412 282.132 358.162 279.142L391.76 191.782H329.787L274.531 333.654Z" fill="#0F234E"/>
</svg>
