<svg width="747" height="654" viewBox="0 0 747 654" fill="none" xmlns="http://www.w3.org/2000/svg">
<path d="M735.334 0.666504H712.001C705.548 0.666504 700.334 5.8801 700.334 12.3332C700.334 18.7862 705.548 23.9998 712.001 23.9998H723.667V47.3332H583.667V23.9998H665.334C671.787 23.9998 677.001 18.7862 677.001 12.3332C677.001 5.8801 671.787 0.666504 665.334 0.666504H572.001C565.548 0.666504 560.334 5.8801 560.334 12.3332V58.9998C560.334 65.4529 565.548 70.6665 572.001 70.6665H583.667V479C583.667 498.297 567.965 514 548.667 514C529.37 514 513.667 498.297 513.667 479V432.333C513.667 361.573 456.094 304 385.334 304H327.001V269C327.001 262.547 321.771 257.333 315.334 257.333H268.667C262.23 257.333 257.001 262.547 257.001 269V280.667H222.001V269C222.001 253.812 212.214 240.979 198.667 236.145V210.667H245.334C264.631 210.667 280.334 194.964 280.334 175.667C280.334 156.369 264.631 140.667 245.334 140.667H82.0007C62.7033 140.667 47.0007 156.369 47.0007 175.667C47.0007 194.964 62.7033 210.667 82.0007 210.667H128.667V236.145C115.121 240.973 105.334 253.807 105.334 269V280.667H70.334V269C70.334 262.547 65.1048 257.333 58.6673 257.333H12.0007C5.56318 257.333 0.333984 262.547 0.333984 269V479C0.333984 485.453 5.56318 490.667 12.0007 490.667H58.6673C65.1048 490.667 70.334 485.453 70.334 479V467.333H257.001V479C257.001 485.453 262.23 490.667 268.667 490.667H315.334C321.771 490.667 327.001 485.453 327.001 479V444H362.001C368.428 444 373.667 449.229 373.667 455.667V479C373.667 575.495 452.173 654 548.667 654C645.162 654 723.667 575.495 723.667 479V432.333C723.667 425.88 718.454 420.667 712.001 420.667C705.548 420.667 700.334 425.88 700.334 432.333V479C700.334 562.625 632.293 630.667 548.667 630.667C465.042 630.667 397.001 562.625 397.001 479V455.667C397.001 436.369 381.298 420.667 362.001 420.667H327.001V327.333H385.334C443.235 327.333 490.334 374.432 490.334 432.333V479C490.334 511.167 516.501 537.333 548.667 537.333C580.834 537.333 607.001 511.167 607.001 479V70.6665H700.334V385.667C700.334 392.12 705.548 397.333 712.001 397.333C718.454 397.333 723.667 392.12 723.667 385.667V70.6665H735.334C741.787 70.6665 747.001 65.4529 747.001 58.9998V12.3332C747.001 5.8801 741.787 0.666504 735.334 0.666504ZM82.0007 187.333C75.5736 187.333 70.334 182.104 70.334 175.667C70.334 169.229 75.5736 164 82.0007 164H245.334C251.761 164 257.001 169.229 257.001 175.667C257.001 182.104 251.761 187.333 245.334 187.333H187.001C180.563 187.333 175.334 192.547 175.334 199V234H152.001V199C152.001 192.547 146.771 187.333 140.334 187.333H82.0007ZM128.667 269C128.667 262.562 133.907 257.333 140.334 257.333H187.001C193.428 257.333 198.667 262.562 198.667 269V280.667H128.667V269ZM47.0007 467.333H23.6673V280.667H47.0007V467.333ZM303.667 467.333H280.334V432.333C280.334 425.88 275.105 420.667 268.667 420.667C262.23 420.667 257.001 425.88 257.001 432.333V444H70.334V304H257.001V385.667C257.001 392.12 262.23 397.333 268.667 397.333C275.105 397.333 280.334 392.12 280.334 385.667V280.667H303.667V467.333Z" fill="#0F234E"/>
<path d="M385.334 217.973V252.635C385.334 259.088 390.548 264.301 397.001 264.301C403.454 264.301 408.667 259.088 408.667 252.635V210.947C408.667 206.441 406.079 202.348 402.016 200.41C377.714 188.848 362 164.056 362 137.249C362 112.082 375.812 89.0196 397 76.6863V113.916C397 133.213 412.703 148.916 432 148.916C451.298 148.916 467 133.213 467 113.916V76.6863C488.188 89.03 502 112.082 502 137.249C502 164.061 486.287 188.853 461.984 200.41C457.911 202.348 455.333 206.452 455.333 210.947V252.635C455.333 259.088 460.547 264.301 467 264.301C473.453 264.301 478.667 259.088 478.667 252.635V217.973C507.24 201.405 525.333 170.489 525.333 137.239C525.333 96.2907 497.917 59.5147 458.656 47.8267C455.135 46.7746 451.317 47.4517 448.354 49.6444C445.401 51.8371 443.666 55.3163 443.666 58.9986V113.9C443.666 120.337 438.437 125.567 432 125.567C425.562 125.567 420.333 120.337 420.333 113.9V58.9986C420.333 55.3215 418.593 51.8475 415.646 49.6444C412.692 47.4413 408.88 46.7747 405.343 47.8267C366.083 59.5142 338.666 96.2907 338.666 137.239C338.666 170.489 356.759 201.405 385.333 217.973H385.334Z" fill="#0F234E"/>
</svg>
