<svg width="654" height="701" viewBox="0 0 654 701" fill="none" xmlns="http://www.w3.org/2000/svg">
<path d="M11.6665 315.333H36.4119L81.7612 666.827C82.5112 672.644 87.4695 676.999 93.3341 676.999H367.974C381.203 691.832 400.13 700.316 420.005 700.332H438.275C451.088 700.322 463.723 697.337 475.187 691.618C491.87 683.327 511.474 683.327 528.157 691.618C539.62 697.337 552.255 700.321 565.069 700.332H583.339C601.897 700.311 619.694 692.931 632.818 679.811C645.938 666.686 653.318 648.889 653.339 630.332V560.332C653.319 541.775 645.938 523.977 632.818 510.853C619.693 497.734 601.897 490.353 583.339 490.332H565.069C552.256 490.342 539.621 493.327 528.157 499.046C511.474 507.337 491.87 507.337 475.187 499.046C468.536 495.78 461.469 493.426 454.187 492.046L476.927 315.326H501.673C504.767 315.326 507.735 314.096 509.923 311.909C512.11 309.721 513.339 306.753 513.339 303.659V256.992C513.339 253.898 512.11 250.93 509.923 248.742C507.735 246.555 504.767 245.326 501.673 245.326H455.006V210.326C455.006 207.232 453.777 204.263 451.589 202.076L396.672 147.164V110.924L414.36 96.7835L444.563 157.205L465.448 146.773L432.989 81.8766L447.421 70.3245H490.005C493.099 70.3245 496.068 69.0953 498.255 66.9078C500.443 64.7203 501.672 61.7515 501.672 58.6578V11.9911C501.672 8.8974 500.443 5.9286 498.255 3.74113C496.068 1.55367 493.099 0.324465 490.005 0.324465H373.339C345.5 0.360924 318.812 11.4338 299.131 31.1165C279.449 50.7991 268.376 77.4858 268.339 105.324C268.339 108.418 269.568 111.387 271.755 113.574C273.943 115.762 276.912 116.991 280.005 116.991H303.339V147.163L271.755 178.747V178.742C269.567 180.929 268.338 183.898 268.338 186.992V245.325H245.005V151.992C244.989 150.549 244.697 149.117 244.151 147.778C243.937 147.325 243.697 146.888 243.432 146.461C243.151 145.851 242.823 145.263 242.448 144.7L198.338 89.5749V11.9909C198.338 8.89715 197.109 5.92835 194.922 3.74089C192.734 1.55342 189.765 0.324219 186.672 0.324219H116.672C110.229 0.324219 105.005 5.54822 105.005 11.9909V89.5749L60.8955 144.7C60.5205 145.263 60.1924 145.851 59.9111 146.461C59.6455 146.888 59.4059 147.325 59.1924 147.778C58.6455 149.117 58.3538 150.549 58.3382 151.992V245.325H11.6715C5.22888 245.325 0.00488281 250.549 0.00488281 256.992V303.659C0.00488281 306.752 1.23406 309.721 3.42155 311.909C5.60904 314.096 8.57782 315.325 11.6715 315.325L11.6665 315.333ZM583.333 677H565.063C555.875 676.99 546.812 674.849 538.593 670.745C515.333 659.188 488 659.188 464.738 670.745C456.52 674.849 447.457 676.99 438.269 677H419.999C407.624 677 395.753 672.083 386.999 663.333C378.249 654.578 373.332 642.708 373.332 630.333V612.364C386.129 623.927 402.753 630.328 419.999 630.333H438.269C451.082 630.323 463.717 627.339 475.181 621.62C491.864 613.328 511.468 613.328 528.151 621.62C539.614 627.339 552.249 630.323 565.063 630.333H583.333C600.579 630.328 617.203 623.927 630 612.364V630.333C630 642.708 625.083 654.579 616.333 663.333C607.578 672.083 595.708 677 583.333 677ZM538.593 519.92C546.812 515.816 555.875 513.675 565.063 513.665H583.333C600.005 513.665 615.412 522.561 623.749 536.998C632.083 551.436 632.083 569.228 623.749 583.665C615.411 598.102 600.004 606.998 583.333 606.998H565.063C555.875 606.988 546.812 604.847 538.593 600.743C515.333 589.186 488 589.186 464.738 600.743C456.52 604.847 447.457 606.988 438.269 606.998H419.999C403.327 606.998 387.92 598.102 379.583 583.665C371.249 569.228 371.249 551.436 379.583 536.998C387.921 522.561 403.328 513.665 419.999 513.665H438.269C447.457 513.675 456.52 515.816 464.738 519.92C488.004 531.467 515.327 531.467 538.593 519.92ZM430.812 490.332H419.999C401.442 490.353 383.645 497.733 370.521 510.853C357.401 523.979 350.021 541.775 349.999 560.332V630.332C350.02 638.285 351.4 646.176 354.083 653.665H103.589L59.9333 315.332H116.668V525.332C116.668 537.707 121.585 549.577 130.335 558.332C139.09 567.082 150.96 571.999 163.335 571.999H280.001C292.376 571.999 304.247 567.082 313.001 558.332C321.751 549.577 326.668 537.707 326.668 525.332V427.54L357.141 442.775V442.78C366.022 447.16 376.287 447.822 385.657 444.608C395.027 441.394 402.731 434.577 407.053 425.665C411.569 416.707 412.34 406.316 409.189 396.791C406.079 387.26 399.267 379.379 390.287 374.927L326.667 343.124V315.332H453.402L430.812 490.332ZM279.999 268.665H303.332V350.332C303.306 354.775 305.811 358.848 309.785 360.832L379.785 395.832C383.196 397.514 385.785 400.509 386.957 404.129C388.17 408.015 387.748 412.223 385.79 415.796C384.176 419.035 381.337 421.499 377.905 422.645C374.472 423.785 370.722 423.52 367.488 421.895L320.124 398.212H320.119C316.509 396.446 312.244 396.665 308.832 398.79C305.421 400.915 303.343 404.644 303.332 408.665V525.332C303.332 531.519 300.874 537.457 296.499 541.832C292.124 546.207 286.186 548.665 279.999 548.665V443.665H256.666V548.665H233.332V443.665H209.999V548.665H186.666V443.665H163.332V548.665C157.145 548.665 151.207 546.207 146.832 541.832C142.457 537.457 139.999 531.519 139.999 525.332V268.665L279.999 268.665ZM489.999 291.999H326.665V268.665H489.999V291.999ZM478.332 46.9987H454.999V23.6654H478.332V46.9987ZM373.332 23.6654H431.665V53.0667L380.905 93.6654H292.493C295.327 74.2387 305.051 56.4774 319.889 43.6241C334.733 30.7751 353.701 23.6921 373.332 23.6654ZM373.332 116.999V140.332H326.665V116.999H373.332ZM291.665 191.827L319.827 163.665H380.165L431.665 215.16V245.332H291.665V191.827ZM122.265 105.332H181.068L209.068 140.332H94.2652L122.265 105.332ZM128.333 23.6654H175V81.9987H128.333V23.6654ZM81.6663 163.665H221.666V245.332H81.6663V163.665ZM23.3329 268.665H116.666V291.999H23.3329V268.665Z" fill="#0F234E"/>
</svg>
